<svg id="svg" version="1.1" width="100" height="100" viewBox="0 0 400 400" xmlns="http://www.w3.org/2000/svg" xmlns:xlink="http://www.w3.org/1999/xlink" style="display: block;"><g id="svgg"><path id="path0" d="M0.011 157.300 L 0.022 314.600 2.711 315.742 C 4.190 316.370,6.120 317.210,7.000 317.610 C 7.880 318.010,9.860 318.903,11.400 319.595 C 12.940 320.287,14.881 321.202,15.712 321.627 C 16.544 322.052,17.489 322.400,17.812 322.400 C 18.136 322.400,18.400 322.580,18.400 322.800 C 18.400 323.020,18.636 323.200,18.925 323.200 C 19.214 323.200,20.339 323.624,21.425 324.143 C 22.511 324.662,24.120 325.400,25.000 325.783 C 25.880 326.166,27.503 326.912,28.606 327.440 C 29.709 327.968,30.834 328.400,31.106 328.400 C 31.378 328.400,31.600 328.580,31.600 328.800 C 31.600 329.020,31.874 329.200,32.208 329.200 C 32.543 329.200,34.298 329.900,36.108 330.755 C 39.240 332.234,40.765 332.926,45.100 334.838 C 46.145 335.299,48.260 336.289,49.800 337.040 C 51.340 337.790,52.753 338.403,52.939 338.402 C 53.126 338.401,54.836 339.142,56.739 340.049 C 60.515 341.847,64.937 343.884,66.200 344.407 C 66.640 344.589,68.571 345.472,70.492 346.369 C 72.413 347.266,74.106 348.000,74.255 348.000 C 74.405 348.000,75.893 348.653,77.563 349.452 C 81.220 351.199,85.502 353.160,86.600 353.588 C 87.040 353.760,88.528 354.462,89.906 355.150 C 91.284 355.837,92.679 356.400,93.006 356.400 C 93.333 356.400,93.600 356.580,93.600 356.800 C 93.600 357.020,93.867 357.200,94.193 357.200 C 94.520 357.200,96.095 357.813,97.693 358.563 C 103.949 361.496,105.999 362.400,106.392 362.400 C 106.616 362.400,106.800 362.580,106.800 362.800 C 106.800 363.020,107.080 363.200,107.422 363.200 C 107.765 363.200,109.133 363.740,110.463 364.400 C 111.794 365.060,113.134 365.600,113.441 365.600 C 113.748 365.600,114.000 365.780,114.000 366.000 C 114.000 366.220,114.236 366.400,114.525 366.400 C 114.814 366.400,115.939 366.824,117.025 367.343 C 118.111 367.862,119.720 368.600,120.600 368.983 C 121.480 369.366,123.103 370.112,124.206 370.640 C 125.309 371.168,126.434 371.600,126.706 371.600 C 126.978 371.600,127.200 371.780,127.200 372.000 C 127.200 372.220,127.474 372.400,127.808 372.400 C 128.143 372.400,129.988 373.139,131.908 374.042 C 136.798 376.342,139.147 377.421,141.000 378.219 C 141.880 378.598,144.054 379.604,145.830 380.454 C 147.607 381.304,149.210 382.000,149.393 382.000 C 149.577 382.000,151.003 382.607,152.563 383.350 C 155.395 384.697,157.223 385.536,161.000 387.221 C 162.100 387.711,164.481 388.807,166.292 389.656 C 168.103 390.505,169.668 391.200,169.771 391.200 C 169.874 391.200,171.362 391.849,173.079 392.643 C 179.529 395.624,181.422 396.484,182.200 396.788 C 182.640 396.960,184.128 397.662,185.506 398.350 C 186.884 399.037,188.279 399.600,188.606 399.600 C 188.933 399.600,189.200 399.780,189.200 400.000 C 189.200 400.220,189.549 400.400,189.976 400.400 C 190.403 400.400,190.864 400.580,191.000 400.800 C 191.475 401.568,314.800 401.329,314.800 400.560 C 314.800 399.964,315.592 397.902,316.434 396.305 C 316.635 395.923,316.800 395.353,316.800 395.038 C 316.800 394.723,317.059 393.955,317.376 393.332 C 318.314 391.486,319.200 389.310,319.200 388.852 C 319.200 388.617,319.560 387.783,320.000 387.000 C 320.440 386.217,320.800 385.383,320.800 385.148 C 320.800 384.913,321.046 384.154,321.346 383.460 C 321.646 382.767,322.210 381.390,322.600 380.400 C 322.990 379.410,323.527 378.060,323.794 377.400 C 324.061 376.740,324.517 375.570,324.807 374.800 C 325.097 374.030,325.459 373.220,325.612 373.000 C 325.765 372.780,326.010 372.060,326.157 371.400 C 326.305 370.740,326.758 369.480,327.164 368.600 C 327.570 367.720,328.219 366.190,328.606 365.200 C 328.992 364.210,329.554 362.833,329.854 362.140 C 330.154 361.446,330.400 360.679,330.400 360.434 C 330.400 360.189,330.571 359.677,330.780 359.295 C 330.988 358.913,331.631 357.430,332.208 356.000 C 332.785 354.570,333.514 352.890,333.829 352.268 C 334.143 351.645,334.400 350.877,334.400 350.562 C 334.400 350.247,334.571 349.677,334.781 349.295 C 335.339 348.276,336.231 346.075,337.007 343.800 C 337.827 341.397,338.402 339.991,339.543 337.600 C 340.016 336.610,340.402 335.558,340.401 335.262 C 340.400 334.966,340.651 334.246,340.957 333.662 C 341.263 333.078,341.828 331.790,342.211 330.800 C 342.595 329.810,343.140 328.460,343.423 327.800 C 343.706 327.140,344.176 325.835,344.466 324.900 C 344.757 323.965,345.131 323.200,345.297 323.200 C 345.464 323.200,345.600 322.912,345.600 322.560 C 345.600 322.209,345.888 321.264,346.241 320.460 C 346.593 319.657,347.022 318.640,347.193 318.200 C 348.578 314.642,348.977 313.642,349.454 312.540 C 349.754 311.846,350.000 311.002,350.000 310.663 C 350.000 310.324,350.160 309.948,350.356 309.827 C 350.551 309.706,350.830 309.136,350.974 308.560 C 351.119 307.983,351.564 306.767,351.964 305.856 C 352.364 304.945,353.010 303.390,353.400 302.400 C 353.790 301.410,354.354 300.033,354.654 299.340 C 354.954 298.646,355.200 297.969,355.200 297.835 C 355.200 297.701,355.538 296.828,355.951 295.896 C 356.364 294.963,357.015 293.300,357.398 292.200 C 358.264 289.716,359.870 285.771,360.629 284.268 C 360.943 283.645,361.200 282.894,361.200 282.600 C 361.200 282.306,361.454 281.555,361.764 280.932 C 362.074 280.310,362.722 278.810,363.205 277.600 C 363.688 276.390,364.321 274.860,364.614 274.200 C 364.906 273.540,365.271 272.550,365.425 272.000 C 365.579 271.450,366.016 270.280,366.397 269.400 C 367.063 267.863,367.653 266.371,369.045 262.700 C 369.399 261.765,370.029 260.308,370.445 259.462 C 370.860 258.616,371.200 257.744,371.200 257.523 C 371.200 257.302,371.446 256.554,371.746 255.860 C 372.046 255.167,372.610 253.790,373.000 252.800 C 373.390 251.810,373.927 250.460,374.194 249.800 C 374.461 249.140,374.916 247.970,375.204 247.200 C 375.492 246.430,375.879 245.629,376.064 245.420 C 376.249 245.211,376.400 244.788,376.400 244.480 C 376.400 244.173,376.688 243.264,377.041 242.460 C 377.393 241.657,377.822 240.640,377.993 240.200 C 379.378 236.642,379.777 235.642,380.254 234.540 C 380.554 233.846,380.800 233.027,380.800 232.720 C 380.800 232.412,380.948 231.989,381.128 231.780 C 381.309 231.571,381.949 230.140,382.551 228.600 C 383.153 227.060,383.905 225.290,384.223 224.668 C 384.540 224.045,384.800 223.294,384.800 223.000 C 384.800 222.706,385.056 221.955,385.369 221.332 C 386.252 219.576,388.002 215.054,388.001 214.532 C 388.001 214.275,388.261 213.555,388.580 212.932 C 389.756 210.639,390.800 208.132,390.813 207.574 C 390.820 207.258,391.090 206.651,391.413 206.224 C 391.736 205.796,392.000 205.136,392.000 204.756 C 392.000 204.376,392.259 203.555,392.576 202.932 C 393.170 201.762,393.896 200.026,394.804 197.600 C 395.092 196.830,395.479 196.029,395.664 195.820 C 395.849 195.611,396.000 195.188,396.000 194.880 C 396.000 194.573,396.288 193.664,396.641 192.860 C 396.993 192.057,397.422 191.040,397.593 190.600 C 397.764 190.160,398.217 188.990,398.600 188.000 C 398.983 187.010,399.457 185.840,399.655 185.400 C 399.863 184.935,399.969 156.900,399.907 118.444 L 399.800 52.289 397.729 51.641 C 396.591 51.284,395.526 50.859,395.363 50.696 C 395.200 50.533,394.809 50.400,394.494 50.400 C 394.179 50.400,393.354 50.148,392.660 49.841 C 391.967 49.533,390.410 48.968,389.200 48.586 C 386.489 47.729,385.326 47.288,383.868 46.563 C 383.245 46.253,382.400 46.000,381.991 46.000 C 381.582 46.000,381.146 45.836,381.022 45.635 C 380.897 45.434,380.078 45.148,379.200 45.000 C 378.322 44.852,377.503 44.566,377.378 44.365 C 377.254 44.164,376.786 44.000,376.338 44.000 C 375.890 44.000,375.046 43.738,374.462 43.419 C 373.878 43.099,371.420 42.193,369.000 41.405 C 366.580 40.617,364.122 39.709,363.538 39.387 C 362.954 39.064,362.110 38.800,361.662 38.800 C 361.214 38.800,360.749 38.640,360.628 38.445 C 360.507 38.250,359.755 37.968,358.955 37.818 C 358.156 37.668,357.209 37.396,356.851 37.214 C 356.279 36.922,354.313 36.141,351.800 35.207 C 351.360 35.043,350.010 34.599,348.800 34.221 C 346.627 33.540,346.153 33.369,343.800 32.411 C 343.140 32.142,340.800 31.330,338.600 30.605 C 336.400 29.880,334.060 29.065,333.400 28.794 C 330.934 27.780,330.550 27.642,328.400 27.000 C 327.190 26.639,325.840 26.197,325.400 26.019 C 324.960 25.841,323.790 25.386,322.800 25.007 C 321.810 24.628,320.707 24.169,320.349 23.986 C 319.991 23.804,319.044 23.532,318.245 23.382 C 317.445 23.232,316.693 22.950,316.572 22.755 C 316.451 22.560,315.948 22.400,315.453 22.400 C 314.958 22.400,314.204 22.136,313.776 21.813 C 313.349 21.490,312.683 21.220,312.295 21.213 C 311.907 21.206,311.277 21.032,310.895 20.826 C 310.513 20.620,308.490 19.875,306.400 19.171 C 304.310 18.467,302.429 17.735,302.220 17.545 C 302.011 17.355,301.437 17.200,300.944 17.200 C 300.451 17.200,299.946 17.036,299.822 16.835 C 299.697 16.634,298.878 16.348,298.000 16.200 C 297.122 16.052,296.303 15.766,296.178 15.565 C 296.054 15.364,295.524 15.200,295.000 15.200 C 294.476 15.200,293.951 15.044,293.833 14.854 C 293.716 14.663,291.770 13.916,289.510 13.193 C 287.249 12.470,285.229 11.726,285.020 11.539 C 284.811 11.353,284.271 11.194,283.820 11.187 C 283.369 11.180,282.651 10.910,282.224 10.587 C 281.796 10.264,281.042 10.000,280.547 10.000 C 280.052 10.000,279.549 9.840,279.428 9.645 C 279.307 9.450,278.555 9.168,277.755 9.018 C 276.956 8.868,276.009 8.596,275.651 8.414 C 275.079 8.122,273.113 7.341,270.600 6.407 C 270.160 6.243,268.810 5.796,267.600 5.414 C 266.390 5.032,264.860 4.484,264.200 4.198 C 263.540 3.911,261.020 3.022,258.600 2.222 C 256.180 1.422,253.887 0.595,253.505 0.384 C 253.066 0.141,206.370 0.000,126.405 0.000 L 0.000 0.000 0.011 157.300 M165.200 189.200 C 165.200 192.060,165.285 194.400,165.388 194.400 C 165.491 194.400,166.251 194.021,167.076 193.557 C 176.371 188.336,184.380 202.716,177.889 212.973 C 175.105 217.372,168.895 218.731,165.425 215.700 C 164.143 214.581,164.142 214.581,163.832 215.816 C 163.581 216.813,163.517 216.830,160.288 216.716 L 157.000 216.600 156.895 200.801 C 156.838 192.111,156.877 184.776,156.983 184.501 C 157.119 184.146,158.343 184.000,161.187 184.000 L 165.200 184.000 165.200 189.200 M307.800 200.400 L 307.800 216.600 304.412 216.600 C 301.384 216.600,300.980 216.512,300.610 215.771 L 300.197 214.942 299.283 215.799 C 297.112 217.836,292.573 217.876,289.257 215.887 C 284.076 212.780,283.059 201.856,287.418 196.140 C 290.121 192.597,297.262 191.430,299.294 194.199 C 299.456 194.420,299.591 192.335,299.594 189.567 C 299.601 183.540,299.276 183.947,303.980 184.086 L 307.800 184.200 307.800 200.400 M76.572 186.755 C 76.693 186.950,77.387 187.221,78.115 187.358 C 79.824 187.678,82.693 190.564,83.043 192.315 C 83.186 193.031,83.460 193.714,83.652 193.832 C 84.135 194.131,84.091 197.897,83.600 198.200 C 83.380 198.336,83.200 198.964,83.200 199.595 C 83.200 200.226,82.930 201.013,82.600 201.343 C 82.270 201.673,82.000 202.123,82.000 202.342 C 82.000 202.562,81.366 203.264,80.592 203.902 C 79.044 205.178,79.157 206.274,81.094 208.800 C 81.516 209.350,82.251 210.610,82.727 211.600 C 83.203 212.590,83.953 213.940,84.394 214.600 C 85.827 216.747,85.663 216.836,80.502 216.713 L 75.804 216.600 73.402 211.709 C 71.076 206.974,70.959 206.818,69.712 206.809 L 68.425 206.800 68.312 211.700 L 68.200 216.600 64.100 216.714 L 60.000 216.828 60.000 201.614 L 60.000 186.400 68.176 186.400 C 72.673 186.400,76.451 186.560,76.572 186.755 M330.800 190.200 L 330.800 193.200 335.416 193.200 L 340.032 193.200 339.916 196.500 L 339.800 199.800 335.265 199.913 L 330.730 200.027 330.865 204.403 C 331.052 210.451,332.000 211.236,337.899 210.222 C 339.171 210.003,339.635 210.065,339.743 210.465 C 339.823 210.759,340.156 212.093,340.484 213.429 L 341.078 215.859 340.039 216.296 C 336.605 217.741,329.673 217.734,327.066 216.282 C 323.536 214.316,322.008 210.345,322.002 203.119 L 322.000 200.038 319.500 199.919 L 317.000 199.800 316.883 196.700 C 316.796 194.388,316.898 193.590,317.283 193.560 C 322.985 193.115,322.684 193.253,323.027 190.923 C 323.579 187.165,323.538 187.200,327.390 187.200 L 330.800 187.200 330.800 190.200 M108.503 193.298 C 112.925 194.565,116.216 200.497,115.425 205.774 L 115.151 207.600 107.753 207.600 L 100.355 207.600 101.037 208.754 C 102.201 210.726,105.515 211.292,109.569 210.213 C 112.065 209.549,112.212 209.641,113.675 212.774 L 114.503 214.549 113.607 215.274 C 113.115 215.674,112.292 216.000,111.779 216.000 C 111.267 216.000,110.747 216.161,110.626 216.359 C 109.850 217.613,100.765 217.610,99.420 216.355 C 99.211 216.160,98.808 216.000,98.525 216.000 C 97.754 216.000,94.833 213.874,94.815 213.300 C 94.807 213.025,94.649 212.800,94.465 212.800 C 94.281 212.800,93.654 211.829,93.073 210.643 C 88.065 200.415,97.262 190.077,108.503 193.298 M136.407 193.068 C 137.029 193.435,137.764 194.159,138.042 194.678 L 138.546 195.620 139.973 194.240 C 142.852 191.456,145.713 191.999,148.193 195.800 C 148.905 196.891,148.990 197.903,149.133 206.900 L 149.289 216.800 145.245 216.800 L 141.200 216.800 141.194 208.900 C 141.191 204.555,141.018 200.732,140.811 200.403 C 140.214 199.459,139.504 200.483,139.374 202.477 C 139.312 203.425,139.232 204.200,139.197 204.200 C 138.992 204.200,138.974 206.060,139.178 206.186 C 139.510 206.391,139.429 208.907,139.071 209.484 C 138.915 209.738,138.926 210.031,139.097 210.136 C 139.480 210.373,139.460 214.056,139.071 214.685 C 138.915 214.938,138.979 215.263,139.213 215.408 C 140.348 216.110,138.631 216.800,135.751 216.800 L 132.800 216.800 132.800 208.624 C 132.800 200.290,132.556 198.952,131.339 200.615 C 130.931 201.174,130.800 203.231,130.800 209.091 L 130.800 216.829 126.900 216.714 L 123.000 216.600 123.000 205.000 L 123.000 193.400 126.200 193.400 C 129.383 193.400,129.401 193.406,129.525 194.485 L 129.650 195.571 130.844 194.211 C 132.461 192.369,134.511 191.948,136.407 193.068 M211.531 193.313 C 212.086 193.769,211.998 194.859,211.111 198.500 L 210.649 200.400 207.098 200.400 L 203.548 200.400 201.374 202.574 L 199.200 204.748 199.200 210.788 L 199.200 216.828 195.100 216.714 L 191.000 216.600 190.888 205.800 C 190.744 192.032,190.424 193.140,194.512 193.284 L 197.800 193.400 198.165 195.454 L 198.531 197.507 200.421 195.617 C 203.267 192.771,209.338 191.512,211.531 193.313 M235.583 192.830 C 237.999 193.387,239.920 194.341,241.164 195.602 C 243.366 197.834,243.391 197.961,243.527 207.700 L 243.654 216.800 240.227 216.800 C 237.101 216.800,236.800 216.732,236.800 216.024 C 236.800 214.802,236.231 214.741,234.317 215.758 C 227.399 219.436,221.008 216.658,221.002 209.970 C 220.998 205.110,224.620 202.435,232.160 201.731 C 234.019 201.557,234.800 201.321,234.800 200.932 C 234.800 199.252,229.049 199.218,225.714 200.879 C 224.681 201.394,223.796 200.861,223.363 199.464 C 223.216 198.989,222.742 198.099,222.310 197.486 C 221.090 195.753,223.136 194.243,228.072 193.236 C 232.424 192.347,233.283 192.301,235.583 192.830 M270.606 192.843 C 275.328 194.032,276.491 197.241,276.320 208.600 L 276.200 216.600 272.000 216.600 L 267.800 216.600 267.691 208.830 C 267.560 199.486,267.209 198.820,263.369 200.642 L 262.017 201.283 261.908 208.942 L 261.800 216.600 257.600 216.600 L 253.400 216.600 253.294 204.900 L 253.188 193.200 256.615 193.200 L 260.042 193.200 260.460 194.400 C 260.968 195.856,261.116 195.871,262.487 194.600 C 263.080 194.050,263.897 193.600,264.303 193.600 C 264.708 193.600,265.211 193.434,265.420 193.231 C 265.629 193.028,266.340 192.785,267.000 192.691 C 267.660 192.597,268.345 192.493,268.523 192.460 C 268.700 192.427,269.638 192.599,270.606 192.843 M68.484 196.500 L 68.600 199.800 71.170 199.699 C 74.449 199.570,75.200 198.955,75.200 196.400 C 75.200 193.772,74.459 193.200,71.052 193.200 L 68.368 193.200 68.484 196.500 M102.103 199.807 C 99.636 201.552,100.071 202.000,104.237 202.000 L 108.103 202.000 107.103 200.700 C 105.922 199.163,103.600 198.748,102.103 199.807 M166.500 200.196 L 165.200 200.761 165.200 205.157 C 165.200 209.994,165.109 209.793,167.485 210.187 C 169.752 210.562,170.962 209.415,171.345 206.532 C 172.046 201.248,170.059 198.650,166.500 200.196 M294.575 200.827 C 291.499 204.038,293.512 210.815,297.353 210.181 C 299.524 209.822,299.382 210.162,299.534 204.996 L 299.667 200.456 298.134 200.030 C 295.984 199.434,295.889 199.455,294.575 200.827 M231.367 207.230 C 229.549 207.758,228.622 208.919,229.182 209.967 C 230.172 211.816,235.600 210.116,235.600 207.956 C 235.600 206.682,234.126 206.429,231.367 207.230 " stroke="none" fill="#dd4b39" fill-rule="evenodd"></path><path id="path1" d="M255.200 0.600 C 255.750 0.914,256.466 1.178,256.792 1.186 C 257.343 1.199,262.003 2.819,263.800 3.622 C 264.240 3.818,266.670 4.686,269.200 5.550 C 278.801 8.827,283.440 10.466,284.600 10.990 C 285.260 11.289,287.330 12.007,289.200 12.586 C 291.070 13.165,292.959 13.840,293.398 14.085 C 293.838 14.329,296.082 15.141,298.386 15.888 C 300.691 16.635,303.121 17.488,303.788 17.783 C 304.455 18.079,306.710 18.897,308.800 19.600 C 310.890 20.303,313.140 21.106,313.800 21.384 C 314.460 21.662,316.800 22.474,319.000 23.189 C 321.200 23.904,323.540 24.730,324.200 25.025 C 324.860 25.319,327.110 26.120,329.200 26.804 C 331.290 27.489,333.360 28.219,333.800 28.427 C 334.658 28.833,342.346 31.536,349.200 33.841 C 351.510 34.618,353.940 35.497,354.600 35.794 C 355.260 36.091,357.469 36.882,359.509 37.553 C 361.549 38.223,363.799 39.035,364.509 39.358 C 365.219 39.680,367.690 40.581,370.000 41.360 C 372.310 42.139,376.450 43.577,379.200 44.556 C 381.950 45.534,386.450 47.133,389.200 48.108 C 391.950 49.083,394.470 49.995,394.800 50.134 C 396.287 50.760,398.951 51.600,399.450 51.600 C 399.893 51.600,400.000 50.374,400.000 45.280 L 400.000 38.961 398.500 38.425 C 397.675 38.131,396.550 37.704,396.000 37.476 C 395.450 37.249,394.280 36.846,393.400 36.581 C 392.520 36.316,390.000 35.426,387.800 34.604 C 385.600 33.782,382.000 32.499,379.800 31.753 C 377.600 31.007,375.440 30.231,375.000 30.030 C 374.560 29.828,372.220 28.994,369.800 28.176 C 367.380 27.358,364.860 26.460,364.200 26.181 C 363.540 25.902,361.290 25.109,359.200 24.418 C 357.110 23.728,355.040 23.010,354.600 22.824 C 354.160 22.637,352.900 22.182,351.800 21.811 C 350.700 21.441,349.440 20.991,349.000 20.811 C 348.560 20.632,347.300 20.182,346.200 19.811 C 345.100 19.441,343.840 18.987,343.400 18.803 C 342.960 18.619,341.610 18.146,340.400 17.753 C 339.190 17.360,338.029 16.895,337.820 16.719 C 337.611 16.544,337.188 16.400,336.880 16.400 C 336.573 16.400,335.754 16.148,335.060 15.840 C 334.367 15.532,333.440 15.191,333.000 15.082 C 332.560 14.973,330.670 14.311,328.800 13.611 C 326.930 12.911,325.040 12.248,324.600 12.136 C 324.160 12.024,323.440 11.790,323.000 11.614 C 320.546 10.635,316.535 9.200,316.251 9.200 C 316.069 9.200,315.354 8.948,314.660 8.640 C 313.967 8.332,313.040 7.984,312.600 7.867 C 312.160 7.750,310.360 7.128,308.600 6.486 C 302.539 4.274,299.394 3.152,297.000 2.349 C 294.511 1.513,293.094 0.958,291.905 0.353 C 290.599 -0.311,254.036 -0.065,255.200 0.600 M398.849 188.494 C 398.326 189.872,397.672 191.540,397.396 192.200 C 397.120 192.860,396.666 194.030,396.387 194.800 C 395.835 196.325,395.134 198.043,394.200 200.160 C 393.870 200.909,393.600 201.798,393.600 202.137 C 393.600 202.476,393.440 202.852,393.244 202.973 C 393.049 203.094,392.770 203.664,392.626 204.240 C 392.481 204.817,392.036 206.033,391.636 206.944 C 391.236 207.855,390.598 209.410,390.218 210.400 C 389.838 211.390,389.289 212.740,388.998 213.400 C 388.708 214.060,387.983 215.950,387.388 217.600 C 386.210 220.864,386.040 221.294,384.836 224.046 C 384.392 225.062,383.649 226.952,383.184 228.246 C 382.719 229.541,382.091 231.140,381.789 231.800 C 381.486 232.460,380.501 234.890,379.599 237.200 C 378.697 239.510,377.806 241.760,377.619 242.200 C 377.431 242.640,376.786 244.260,376.186 245.800 C 375.585 247.340,374.848 249.167,374.547 249.860 C 374.246 250.554,374.000 251.398,374.000 251.737 C 374.000 252.076,373.840 252.452,373.644 252.573 C 373.449 252.694,373.170 253.264,373.026 253.840 C 372.881 254.417,372.436 255.633,372.036 256.544 C 371.636 257.455,371.028 258.920,370.683 259.800 C 367.890 266.932,366.709 269.914,366.405 270.600 C 366.210 271.040,365.925 271.850,365.773 272.400 C 365.620 272.950,365.145 274.210,364.715 275.200 C 364.286 276.190,363.680 277.591,363.368 278.314 C 363.055 279.036,362.800 279.891,362.800 280.214 C 362.800 280.536,362.620 280.800,362.400 280.800 C 362.180 280.800,362.000 281.065,362.000 281.389 C 362.000 281.712,361.166 284.007,360.146 286.489 C 358.045 291.603,357.020 294.212,356.105 296.778 C 355.757 297.756,355.232 299.016,354.938 299.578 C 354.645 300.140,354.404 300.879,354.402 301.220 C 354.401 301.561,354.250 302.011,354.067 302.220 C 353.885 302.429,352.969 304.580,352.033 307.000 C 350.366 311.310,347.485 318.615,346.828 320.200 C 346.645 320.640,346.183 321.810,345.800 322.800 C 345.417 323.790,344.964 324.960,344.793 325.400 C 344.622 325.840,344.193 326.857,343.841 327.660 C 343.488 328.464,343.200 329.321,343.200 329.566 C 343.200 329.811,343.029 330.323,342.820 330.705 C 342.430 331.420,340.726 335.516,339.786 338.000 C 338.130 342.378,335.923 347.893,335.587 348.495 C 335.374 348.877,335.199 349.417,335.198 349.695 C 335.196 349.973,334.956 350.658,334.664 351.218 C 334.372 351.777,333.623 353.569,333.000 355.200 C 332.377 356.831,331.628 358.623,331.336 359.182 C 331.044 359.742,330.804 360.385,330.802 360.611 C 330.801 360.837,329.974 362.997,328.964 365.411 C 327.954 367.825,326.986 370.250,326.811 370.800 C 326.637 371.350,326.271 372.340,325.998 373.000 C 325.724 373.660,325.361 374.560,325.191 375.000 C 325.021 375.440,324.593 376.457,324.241 377.260 C 323.888 378.064,323.600 378.921,323.600 379.166 C 323.600 379.411,323.429 379.923,323.220 380.305 C 322.830 381.020,321.126 385.116,320.186 387.600 C 318.649 391.663,316.333 397.476,316.038 398.013 C 315.853 398.350,315.575 399.205,315.419 399.913 L 315.136 401.200 321.768 401.200 C 327.888 401.200,328.400 401.144,328.400 400.480 C 328.400 400.084,328.544 399.589,328.719 399.380 C 328.895 399.171,329.379 398.010,329.795 396.800 C 330.211 395.590,330.787 394.150,331.073 393.600 C 331.360 393.050,331.596 392.373,331.598 392.095 C 331.599 391.817,331.765 391.277,331.966 390.895 C 332.168 390.513,332.630 389.480,332.993 388.600 C 333.945 386.294,334.247 385.571,334.908 384.000 C 335.232 383.230,335.994 381.250,336.602 379.600 C 337.210 377.950,337.863 376.429,338.054 376.220 C 338.244 376.011,338.400 375.588,338.400 375.280 C 338.400 374.973,338.649 374.154,338.953 373.460 C 339.257 372.767,339.734 371.570,340.013 370.800 C 340.622 369.118,341.884 366.032,343.202 363.000 C 343.393 362.560,343.676 361.750,343.830 361.200 C 343.984 360.650,344.535 359.267,345.055 358.126 C 345.575 356.985,346.000 355.806,346.000 355.506 C 346.000 355.206,346.154 354.789,346.342 354.580 C 346.530 354.371,347.362 352.400,348.192 350.200 C 349.021 348.000,349.923 345.660,350.196 345.000 C 350.468 344.340,351.010 342.990,351.400 342.000 C 351.790 341.010,352.366 339.570,352.681 338.800 C 352.996 338.030,353.398 337.040,353.574 336.600 C 353.749 336.160,354.075 335.350,354.299 334.800 C 354.522 334.250,355.020 332.990,355.406 332.000 C 356.686 328.721,357.235 327.408,357.619 326.705 C 357.829 326.323,358.000 325.817,358.000 325.580 C 358.000 325.343,358.450 324.165,359.000 322.963 C 359.550 321.760,360.000 320.584,360.000 320.349 C 360.000 320.113,360.288 319.264,360.641 318.460 C 360.993 317.657,361.438 316.640,361.629 316.200 C 361.820 315.760,362.527 313.960,363.200 312.200 C 363.873 310.440,364.588 308.640,364.788 308.200 C 364.989 307.760,365.914 305.420,366.844 303.000 C 367.774 300.580,368.685 298.429,368.867 298.220 C 369.050 298.011,369.200 297.588,369.200 297.280 C 369.200 296.973,369.451 296.154,369.758 295.460 C 370.065 294.767,370.985 292.490,371.802 290.400 C 372.619 288.310,373.514 286.060,373.790 285.400 C 374.066 284.740,374.610 283.390,375.000 282.400 C 376.370 278.921,376.842 277.794,377.219 277.105 C 377.429 276.723,377.600 276.211,377.600 275.966 C 377.600 275.721,377.888 274.864,378.241 274.060 C 378.593 273.257,379.022 272.240,379.193 271.800 C 379.759 270.345,380.891 267.413,381.200 266.600 C 381.822 264.964,382.926 262.156,383.481 260.800 C 383.796 260.030,384.198 259.040,384.374 258.600 C 384.549 258.160,384.895 257.350,385.143 256.800 C 385.390 256.250,386.058 254.540,386.628 253.000 C 387.197 251.460,387.903 249.660,388.196 249.000 C 388.489 248.340,389.203 246.540,389.784 245.000 C 391.638 240.076,393.108 236.439,393.619 235.505 C 393.829 235.123,394.000 234.611,394.000 234.366 C 394.000 234.121,394.270 233.309,394.600 232.560 C 395.772 229.904,396.318 228.553,397.820 224.600 C 398.656 222.400,399.490 220.498,399.674 220.374 C 399.858 220.249,399.962 212.462,399.904 203.068 L 399.800 185.988 398.849 188.494 M-0.000 321.725 L -0.000 328.305 2.100 329.318 C 5.765 331.087,11.240 333.600,11.428 333.600 C 11.601 333.600,15.497 335.370,19.800 337.404 C 22.840 338.842,27.235 340.800,27.420 340.800 C 27.511 340.800,29.073 341.493,30.892 342.339 C 32.712 343.186,34.830 344.160,35.600 344.504 C 36.370 344.848,38.170 345.662,39.600 346.312 C 41.030 346.962,43.100 347.895,44.200 348.385 C 45.300 348.875,47.550 349.900,49.200 350.663 C 50.850 351.426,52.560 352.204,53.000 352.390 C 53.440 352.577,55.060 353.303,56.600 354.002 C 58.140 354.702,59.940 355.513,60.600 355.805 C 61.260 356.096,63.150 356.958,64.800 357.719 C 67.636 359.028,71.119 360.595,73.800 361.767 C 74.460 362.055,75.990 362.746,77.200 363.302 C 78.410 363.858,80.210 364.677,81.200 365.122 C 82.190 365.568,84.170 366.466,85.600 367.119 C 87.030 367.771,89.100 368.702,90.200 369.186 C 91.300 369.671,93.550 370.696,95.200 371.464 C 96.850 372.233,98.560 373.012,99.000 373.195 C 99.440 373.379,101.385 374.266,103.323 375.165 C 105.261 376.064,106.913 376.800,106.994 376.800 C 107.128 376.800,108.421 377.384,115.800 380.776 C 118.349 381.948,118.662 382.089,125.200 384.993 C 127.510 386.020,130.480 387.362,131.800 387.975 C 133.120 388.589,134.830 389.369,135.600 389.709 C 136.370 390.048,138.350 390.946,140.000 391.704 C 144.850 393.931,147.745 395.242,148.600 395.597 C 149.363 395.915,151.884 397.059,156.875 399.354 C 158.127 399.929,159.342 400.400,159.575 400.400 C 159.809 400.400,160.000 400.580,160.000 400.800 C 160.000 401.060,165.362 401.197,175.300 401.193 L 190.600 401.186 187.265 399.593 C 185.431 398.717,183.859 398.000,183.771 398.000 C 183.684 398.000,181.674 397.084,179.306 395.964 C 176.938 394.844,174.156 393.592,173.125 393.180 C 172.094 392.768,169.664 391.690,167.725 390.784 C 165.786 389.877,163.480 388.814,162.600 388.420 C 158.694 386.672,157.280 386.040,155.500 385.247 C 154.455 384.781,152.745 384.014,151.700 383.542 C 150.655 383.071,148.810 382.246,147.600 381.710 C 145.377 380.726,143.480 379.850,137.077 376.850 C 135.140 375.943,133.414 375.200,133.241 375.200 C 133.069 375.200,131.864 374.674,130.564 374.030 C 128.422 372.970,124.549 371.184,121.400 369.804 C 120.740 369.515,119.120 368.791,117.800 368.195 C 116.480 367.600,114.770 366.840,114.000 366.508 C 113.230 366.175,111.520 365.398,110.200 364.781 C 102.913 361.377,99.885 360.000,99.681 360.000 C 99.555 360.000,98.721 359.654,97.826 359.232 C 95.311 358.044,89.201 355.226,87.200 354.331 C 86.210 353.888,83.905 352.822,82.077 351.963 C 80.250 351.103,78.676 350.400,78.580 350.400 C 78.411 350.400,73.279 348.120,67.971 345.688 C 64.978 344.316,62.282 343.095,59.200 341.715 C 57.990 341.173,56.280 340.397,55.400 339.991 C 54.520 339.585,52.810 338.815,51.600 338.281 C 50.390 337.746,48.410 336.852,47.200 336.293 C 44.412 335.005,40.610 333.290,38.800 332.504 C 38.030 332.169,36.140 331.307,34.600 330.589 C 31.943 329.349,28.440 327.762,25.800 326.605 C 25.140 326.315,23.430 325.542,22.000 324.887 C 19.304 323.653,16.554 322.410,13.800 321.182 C 12.920 320.790,10.425 319.644,8.255 318.635 C 6.085 317.626,4.143 316.800,3.941 316.800 C 3.738 316.800,3.173 316.549,2.686 316.242 C 2.199 315.935,1.395 315.562,0.900 315.415 L 0.000 315.146 -0.000 321.725 " stroke="none" fill="#fafbfc" fill-rule="evenodd"></path><path id="path2" d="M293.746 0.602 C 294.376 0.931,295.186 1.201,295.546 1.202 C 295.906 1.204,296.716 1.474,297.346 1.802 C 297.976 2.131,298.831 2.400,299.246 2.400 C 299.661 2.400,300.000 2.580,300.000 2.800 C 300.000 3.020,300.405 3.201,300.900 3.202 C 301.395 3.204,302.316 3.474,302.946 3.802 C 303.576 4.131,304.420 4.400,304.822 4.400 C 305.224 4.400,305.664 4.580,305.800 4.800 C 305.936 5.020,306.352 5.201,306.724 5.202 C 307.096 5.204,307.916 5.474,308.546 5.802 C 309.176 6.131,309.935 6.400,310.232 6.400 C 310.733 6.400,312.863 7.224,314.495 8.049 C 314.877 8.242,315.479 8.400,315.834 8.400 C 316.415 8.400,318.393 9.149,320.013 9.983 C 320.350 10.156,321.250 10.432,322.013 10.595 C 322.776 10.759,323.580 11.022,323.800 11.181 C 324.020 11.339,325.280 11.793,326.600 12.189 C 327.920 12.586,329.180 13.028,329.400 13.171 C 329.620 13.315,330.880 13.773,332.200 14.189 C 333.520 14.606,334.780 15.073,335.000 15.227 C 335.220 15.381,336.024 15.641,336.787 15.805 C 337.550 15.968,338.450 16.246,338.787 16.422 C 339.124 16.598,339.760 16.871,340.200 17.030 C 340.640 17.188,342.440 17.846,344.200 18.492 C 345.960 19.137,347.895 19.761,348.500 19.878 C 349.105 19.995,349.600 20.250,349.600 20.445 C 349.600 20.640,350.005 20.801,350.500 20.802 C 350.995 20.804,351.916 21.074,352.546 21.402 C 353.176 21.731,354.020 22.000,354.422 22.000 C 354.824 22.000,355.264 22.180,355.400 22.400 C 355.536 22.620,355.952 22.801,356.324 22.802 C 356.696 22.804,357.516 23.074,358.146 23.402 C 358.776 23.731,359.543 24.000,359.851 24.000 C 360.159 24.000,360.723 24.164,361.105 24.365 C 361.487 24.565,362.700 25.032,363.800 25.402 C 364.900 25.773,366.367 26.328,367.060 26.638 C 367.754 26.947,368.699 27.200,369.160 27.200 C 369.622 27.200,370.000 27.380,370.000 27.600 C 370.000 27.820,370.354 28.000,370.786 28.000 C 371.496 28.000,373.440 28.711,375.295 29.649 C 375.677 29.842,376.307 30.001,376.695 30.002 C 377.083 30.004,377.916 30.274,378.546 30.602 C 379.176 30.931,380.031 31.200,380.446 31.200 C 380.861 31.200,381.200 31.380,381.200 31.600 C 381.200 31.820,381.578 32.000,382.040 32.000 C 382.501 32.000,383.446 32.253,384.140 32.562 C 384.833 32.872,386.300 33.431,387.400 33.805 C 388.500 34.179,389.760 34.630,390.200 34.808 C 390.640 34.986,391.990 35.454,393.200 35.847 C 394.410 36.240,395.571 36.705,395.780 36.881 C 395.989 37.056,396.529 37.201,396.980 37.202 C 397.431 37.204,398.295 37.463,398.900 37.779 L 400.000 38.353 400.000 19.176 L 400.000 0.000 346.300 0.002 C 298.419 0.005,292.724 0.070,293.746 0.602 M157.467 184.667 C 157.320 184.813,157.200 192.021,157.200 200.683 L 157.200 216.434 160.300 216.317 C 163.169 216.209,163.410 216.133,163.528 215.300 C 163.690 214.160,164.209 214.165,165.762 215.322 C 171.504 219.599,178.186 215.472,179.632 206.756 C 181.157 197.562,174.204 190.427,167.200 194.000 C 164.774 195.238,164.800 195.286,164.800 189.600 L 164.800 184.400 161.267 184.400 C 159.323 184.400,157.613 184.520,157.467 184.667 M300.000 189.600 C 300.000 192.460,299.915 194.800,299.812 194.800 C 299.709 194.800,298.983 194.440,298.200 194.000 C 293.838 191.550,287.404 194.655,285.996 199.889 C 285.713 200.940,285.329 201.971,285.141 202.180 C 284.664 202.712,284.713 207.099,285.200 207.400 C 285.420 207.536,285.600 208.233,285.600 208.948 C 285.600 215.312,293.632 219.003,299.200 215.198 C 300.383 214.389,301.200 214.567,301.200 215.633 C 301.200 216.325,301.513 216.400,304.400 216.400 L 307.600 216.400 307.600 200.400 L 307.600 184.400 303.800 184.400 L 300.000 184.400 300.000 189.600 M60.400 201.559 L 60.400 216.400 64.200 216.400 L 68.000 216.400 68.000 211.377 L 68.000 206.354 69.667 206.477 L 71.334 206.600 73.763 211.500 L 76.193 216.400 80.459 216.400 C 84.528 216.400,84.715 216.363,84.516 215.600 C 84.401 215.160,84.175 214.800,84.014 214.800 C 83.853 214.800,83.392 214.035,82.988 213.100 C 82.585 212.165,81.870 210.860,81.399 210.200 C 80.574 209.043,78.800 205.580,78.800 205.126 C 78.800 205.005,79.569 204.117,80.508 203.153 C 84.291 199.273,84.287 193.060,80.500 189.382 C 79.718 188.622,78.781 188.000,78.419 188.000 C 78.056 188.000,77.535 187.775,77.260 187.500 C 76.903 187.143,74.429 186.960,68.580 186.859 L 60.400 186.718 60.400 201.559 M324.946 187.522 C 324.040 187.651,323.600 188.920,323.600 191.401 C 323.600 193.344,323.024 193.588,317.500 193.979 C 317.335 193.990,317.200 195.260,317.200 196.800 L 317.200 199.600 320.000 199.600 L 322.800 199.600 322.800 204.605 C 322.800 207.358,322.965 209.923,323.167 210.305 C 323.368 210.687,323.740 211.561,323.993 212.247 C 325.420 216.114,330.285 217.768,336.700 216.567 C 340.797 215.800,340.760 215.845,339.850 212.800 L 339.312 211.000 335.804 210.937 C 330.816 210.848,330.640 210.632,330.467 204.390 L 330.333 199.600 334.967 199.600 L 339.600 199.600 339.600 196.613 L 339.600 193.626 335.100 193.513 L 330.600 193.400 330.482 190.478 C 330.382 188.005,330.259 187.566,329.682 187.624 C 329.307 187.661,328.910 187.655,328.800 187.609 C 328.433 187.458,325.812 187.398,324.946 187.522 M74.293 193.226 C 78.010 195.547,75.442 200.548,70.653 200.318 L 68.200 200.200 68.083 196.833 C 67.922 192.224,67.905 192.251,70.930 192.494 C 72.312 192.605,73.826 192.934,74.293 193.226 M100.632 193.548 C 100.514 193.740,99.912 193.998,99.296 194.121 C 97.600 194.460,94.413 197.494,93.346 199.785 C 92.342 201.942,91.954 208.477,92.800 209.000 C 93.020 209.136,93.200 209.501,93.200 209.812 C 93.200 214.032,101.821 217.905,108.256 216.576 C 114.158 215.357,114.694 214.644,112.332 211.155 C 111.631 210.120,111.606 210.116,109.525 210.655 C 105.522 211.694,102.176 211.132,100.792 209.189 C 99.459 207.317,99.859 207.200,107.577 207.200 C 114.633 207.200,114.709 207.191,114.948 206.300 C 116.185 201.685,112.876 195.319,108.459 193.814 C 106.533 193.157,100.990 192.969,100.632 193.548 M131.054 194.845 L 129.646 196.490 129.299 195.145 L 128.952 193.800 126.076 193.682 L 123.200 193.565 123.200 204.982 L 123.200 216.400 126.800 216.400 L 130.400 216.400 130.400 209.026 C 130.400 201.273,130.675 199.600,131.947 199.600 C 133.110 199.600,133.200 200.248,133.200 208.633 L 133.200 216.400 136.000 216.400 L 138.800 216.400 138.800 209.019 C 138.800 201.056,139.101 199.471,140.573 199.682 C 141.375 199.796,141.403 200.053,141.508 208.100 L 141.616 216.400 145.254 216.400 L 148.892 216.400 148.717 206.900 C 148.563 198.500,148.454 197.230,147.771 195.934 C 146.066 192.692,142.811 192.238,140.131 194.868 L 138.432 196.535 138.041 195.508 C 136.960 192.665,133.224 192.310,131.054 194.845 M202.949 194.222 C 201.669 194.842,200.489 195.806,199.806 196.792 C 198.439 198.764,197.600 198.239,197.600 195.412 L 197.600 193.566 194.500 193.683 L 191.400 193.800 191.294 205.100 L 191.188 216.400 194.994 216.400 L 198.800 216.400 198.800 210.780 C 198.800 204.695,199.018 203.846,201.064 201.946 C 203.124 200.033,204.694 199.482,207.450 199.703 C 210.291 199.931,210.232 199.985,211.024 196.400 C 211.670 193.471,211.397 193.196,207.851 193.215 C 205.654 193.226,204.529 193.457,202.949 194.222 M228.600 193.469 C 224.776 194.310,221.300 196.320,222.445 197.028 C 222.690 197.179,223.245 198.104,223.678 199.082 C 224.289 200.465,224.613 200.797,225.132 200.574 C 228.986 198.920,233.629 198.855,234.913 200.438 C 235.668 201.369,235.669 201.405,234.947 201.539 C 234.536 201.615,234.029 201.840,233.820 202.039 C 233.611 202.237,232.649 202.400,231.682 202.400 C 224.499 202.400,219.851 207.054,221.655 212.440 C 223.310 217.380,230.666 218.450,235.656 214.477 C 236.226 214.024,236.385 214.117,236.854 215.177 C 237.391 216.389,237.423 216.400,240.498 216.400 L 243.600 216.400 243.600 208.824 C 243.600 204.204,243.444 201.151,243.200 201.000 C 242.980 200.864,242.800 200.341,242.800 199.838 C 242.800 195.184,235.561 191.937,228.600 193.469 M264.968 193.748 C 264.290 193.996,263.079 194.701,262.278 195.312 L 260.821 196.425 260.223 194.994 L 259.625 193.563 256.913 193.681 L 254.200 193.800 254.094 205.100 L 253.988 216.400 257.594 216.400 L 261.200 216.400 261.200 209.122 L 261.200 201.844 262.275 200.722 C 263.655 199.281,266.259 199.140,267.438 200.441 C 268.120 201.194,268.214 202.078,268.331 208.841 L 268.462 216.400 272.031 216.400 L 275.600 216.400 275.600 207.479 C 275.600 197.213,275.133 195.359,272.183 193.900 C 270.577 193.106,266.926 193.029,264.968 193.748 M107.074 199.670 C 109.234 201.699,108.444 202.400,104.000 202.400 C 99.467 202.400,99.141 202.121,101.231 200.031 C 102.807 198.455,105.597 198.282,107.074 199.670 M170.738 200.167 C 173.543 202.972,171.505 210.800,167.969 210.800 C 165.157 210.800,164.751 210.036,164.884 205.000 L 165.000 200.600 166.400 199.884 C 167.918 199.108,169.802 199.231,170.738 200.167 M299.500 200.101 C 300.458 200.862,300.168 208.869,299.142 209.970 C 296.979 212.292,293.456 210.331,292.977 206.537 C 292.267 200.910,295.945 197.280,299.500 200.101 M235.800 208.000 C 235.800 210.367,230.973 212.205,229.131 210.538 C 226.948 208.562,229.681 206.412,234.200 206.551 C 235.753 206.599,235.800 206.642,235.800 208.000 M399.300 222.283 C 399.025 222.875,398.800 223.521,398.800 223.719 C 398.800 223.917,398.551 224.646,398.247 225.340 C 397.944 226.033,397.395 227.320,397.028 228.200 C 396.661 229.080,396.190 230.113,395.981 230.495 C 395.771 230.877,395.600 231.389,395.600 231.634 C 395.600 231.879,395.312 232.736,394.959 233.540 C 394.094 235.512,393.803 236.258,392.990 238.600 C 392.608 239.700,392.138 240.771,391.947 240.980 C 391.756 241.189,391.600 241.606,391.600 241.906 C 391.600 242.206,391.150 243.435,390.600 244.637 C 390.050 245.840,389.600 246.926,389.600 247.051 C 389.600 247.177,389.315 247.936,388.967 248.740 C 388.618 249.543,388.078 250.791,387.767 251.514 C 387.455 252.236,387.200 253.091,387.200 253.414 C 387.200 253.736,387.036 254.000,386.835 254.000 C 386.634 254.000,386.349 254.720,386.200 255.600 C 386.051 256.480,385.766 257.200,385.565 257.200 C 385.364 257.200,385.200 257.472,385.200 257.805 C 385.200 258.138,385.042 258.723,384.849 259.105 C 383.999 260.786,383.200 262.874,383.200 263.414 C 383.200 263.736,383.020 264.000,382.800 264.000 C 382.580 264.000,382.400 264.378,382.400 264.840 C 382.400 265.301,382.115 266.336,381.767 267.140 C 381.418 267.943,380.878 269.191,380.567 269.914 C 380.255 270.636,380.000 271.491,380.000 271.814 C 380.000 272.136,379.820 272.400,379.600 272.400 C 379.380 272.400,379.200 272.688,379.200 273.040 C 379.200 273.391,378.930 274.291,378.600 275.040 C 377.731 277.009,376.994 278.803,376.396 280.400 C 376.108 281.170,375.721 281.971,375.536 282.180 C 375.351 282.389,375.200 282.812,375.200 283.120 C 375.200 283.427,374.954 284.246,374.654 284.940 C 374.164 286.073,373.231 288.415,372.400 290.600 C 371.872 291.989,370.710 294.954,370.206 296.200 C 369.939 296.860,369.484 298.030,369.196 298.800 C 368.908 299.570,368.521 300.371,368.336 300.580 C 368.151 300.789,367.994 301.239,367.986 301.580 C 367.979 301.921,367.625 302.920,367.200 303.800 C 366.775 304.680,366.421 305.537,366.414 305.704 C 366.406 305.872,366.025 306.862,365.568 307.904 C 363.791 311.950,363.600 312.446,363.600 313.014 C 363.600 313.336,363.420 313.600,363.200 313.600 C 362.980 313.600,362.800 313.978,362.800 314.440 C 362.800 314.901,362.530 315.891,362.200 316.640 C 361.870 317.388,361.330 318.612,361.000 319.360 C 360.670 320.109,360.400 320.998,360.400 321.337 C 360.400 321.676,360.240 322.052,360.044 322.173 C 359.849 322.294,359.570 322.864,359.426 323.440 C 359.281 324.017,358.796 325.323,358.349 326.344 C 356.584 330.369,356.400 330.847,356.400 331.414 C 356.400 331.736,356.220 332.000,356.000 332.000 C 355.780 332.000,355.600 332.288,355.600 332.640 C 355.600 332.991,355.351 333.846,355.047 334.540 C 354.744 335.233,354.204 336.457,353.847 337.260 C 353.491 338.064,353.200 338.973,353.200 339.280 C 353.200 339.588,353.045 340.011,352.856 340.220 C 352.667 340.429,352.180 341.590,351.775 342.800 C 351.370 344.010,350.895 345.171,350.719 345.380 C 350.544 345.589,350.400 345.995,350.400 346.282 C 350.400 346.569,349.950 347.737,349.400 348.877 C 348.850 350.017,348.400 351.114,348.400 351.314 C 348.400 351.515,348.109 352.336,347.753 353.140 C 346.922 355.014,346.253 356.644,345.596 358.400 C 345.308 359.170,344.921 359.971,344.736 360.180 C 344.551 360.389,344.399 360.839,344.398 361.180 C 344.396 361.521,344.164 362.250,343.882 362.800 C 343.600 363.350,343.047 364.700,342.653 365.800 C 342.260 366.900,341.787 368.160,341.604 368.600 C 341.420 369.040,340.704 370.840,340.013 372.600 C 338.673 376.016,338.440 376.584,337.441 378.860 C 337.088 379.664,336.800 380.609,336.800 380.960 C 336.800 381.312,336.643 381.600,336.450 381.600 C 336.257 381.600,335.992 382.139,335.860 382.798 C 335.729 383.456,335.269 384.724,334.838 385.615 C 334.408 386.506,333.940 387.765,333.797 388.413 C 333.655 389.061,333.372 389.694,333.169 389.819 C 332.966 389.945,332.800 390.397,332.800 390.824 C 332.800 391.251,332.620 391.600,332.400 391.600 C 332.180 391.600,331.999 392.005,331.998 392.500 C 331.996 392.995,331.726 393.916,331.398 394.546 C 331.069 395.176,330.800 395.941,330.800 396.246 C 330.800 396.551,330.636 396.800,330.435 396.800 C 330.234 396.800,329.949 397.520,329.800 398.400 C 329.651 399.280,329.366 400.000,329.165 400.000 C 328.964 400.000,328.800 400.270,328.800 400.600 C 328.800 401.129,333.022 401.200,364.400 401.200 L 400.000 401.200 400.000 311.200 C 400.000 261.700,399.955 221.201,399.900 221.203 C 399.845 221.205,399.575 221.691,399.300 222.283 M0.000 365.213 L 0.000 401.200 79.700 401.191 C 148.560 401.183,159.237 401.105,158.200 400.618 C 157.540 400.308,156.100 399.662,155.000 399.183 C 153.900 398.703,151.740 397.727,150.200 397.012 C 147.534 395.776,146.241 395.203,143.300 393.956 C 142.585 393.653,142.000 393.283,142.000 393.134 C 142.000 392.985,141.496 392.753,140.879 392.617 C 140.262 392.482,138.882 391.928,137.811 391.386 C 136.740 390.843,135.625 390.400,135.332 390.400 C 135.039 390.400,134.800 390.220,134.800 390.000 C 134.800 389.780,134.526 389.600,134.192 389.600 C 133.858 389.600,132.103 388.906,130.292 388.057 C 127.174 386.596,125.934 386.042,122.900 384.756 C 122.185 384.453,121.600 384.088,121.600 383.946 C 121.600 383.803,121.124 383.567,120.542 383.421 C 119.960 383.275,118.115 382.516,116.442 381.735 C 113.445 380.335,110.150 378.841,107.800 377.815 C 107.140 377.526,105.610 376.835,104.400 376.279 C 103.190 375.723,100.940 374.697,99.400 373.998 C 97.860 373.300,95.880 372.398,95.000 371.993 C 92.330 370.766,86.884 368.324,83.000 366.611 C 81.680 366.029,79.880 365.216,79.000 364.805 C 75.912 363.363,71.375 361.344,68.100 359.956 C 67.385 359.653,66.800 359.269,66.800 359.102 C 66.800 358.936,66.485 358.794,66.100 358.787 C 65.715 358.781,64.325 358.241,63.010 357.587 C 61.696 356.934,60.391 356.400,60.110 356.400 C 59.830 356.400,59.600 356.220,59.600 356.000 C 59.600 355.780,59.328 355.600,58.995 355.600 C 58.662 355.600,58.077 355.432,57.695 355.227 C 56.572 354.626,51.960 352.562,47.700 350.756 C 46.985 350.453,46.400 350.083,46.400 349.934 C 46.400 349.785,45.896 349.553,45.279 349.417 C 44.662 349.282,43.282 348.728,42.211 348.186 C 41.140 347.643,40.025 347.200,39.732 347.200 C 39.439 347.200,39.200 347.020,39.200 346.800 C 39.200 346.580,38.926 346.400,38.592 346.400 C 38.034 346.400,32.445 343.929,29.938 342.574 C 29.354 342.258,28.589 342.000,28.238 342.000 C 27.887 342.000,27.600 341.820,27.600 341.600 C 27.600 341.380,27.240 341.200,26.800 341.200 C 26.360 341.200,26.000 341.040,26.000 340.843 C 26.000 340.647,25.524 340.367,24.942 340.221 C 24.360 340.075,22.515 339.320,20.842 338.544 C 18.063 337.254,15.815 336.234,12.000 334.532 C 11.230 334.188,10.122 333.658,9.538 333.354 C 8.954 333.049,8.189 332.800,7.838 332.800 C 7.487 332.800,7.200 332.620,7.200 332.400 C 7.200 332.180,7.033 332.000,6.828 332.000 C 6.623 332.000,5.318 331.485,3.928 330.856 C 2.538 330.227,1.085 329.603,0.700 329.469 C 0.037 329.238,0.000 331.113,0.000 365.213 " stroke="none" fill="#333" fill-rule="evenodd"></path><path id="path3" d="M295.600 1.334 C 295.600 1.437,296.181 1.724,296.891 1.972 C 297.601 2.219,298.006 2.257,297.791 2.056 C 297.335 1.629,295.600 1.058,295.600 1.334 M301.200 3.334 C 301.200 3.437,301.781 3.724,302.491 3.972 C 303.201 4.219,303.606 4.257,303.391 4.056 C 302.935 3.629,301.200 3.058,301.200 3.334 M306.800 5.334 C 306.800 5.437,307.381 5.724,308.091 5.972 C 308.801 6.219,309.206 6.257,308.991 6.056 C 308.535 5.629,306.800 5.058,306.800 5.334 M316.000 8.534 C 316.000 8.637,316.581 8.924,317.291 9.172 C 318.001 9.419,318.406 9.457,318.191 9.256 C 317.735 8.829,316.000 8.258,316.000 8.534 M321.806 10.810 C 321.906 10.972,322.435 11.190,322.982 11.294 C 323.529 11.399,323.894 11.352,323.794 11.190 C 323.694 11.028,323.165 10.810,322.618 10.706 C 322.071 10.601,321.706 10.648,321.806 10.810 M327.200 12.534 C 327.200 12.637,327.781 12.924,328.491 13.172 C 329.201 13.419,329.606 13.457,329.391 13.256 C 328.935 12.829,327.200 12.258,327.200 12.534 M333.006 14.810 C 333.106 14.972,333.635 15.190,334.182 15.294 C 334.729 15.399,335.094 15.352,334.994 15.190 C 334.894 15.028,334.365 14.810,333.818 14.706 C 333.271 14.601,332.906 14.648,333.006 14.810 M336.636 16.058 C 336.752 16.246,337.186 16.400,337.600 16.400 C 338.014 16.400,338.451 16.559,338.570 16.752 C 338.690 16.946,339.235 17.190,339.782 17.294 C 340.329 17.399,340.681 17.330,340.564 17.142 C 340.448 16.954,340.014 16.800,339.600 16.800 C 339.186 16.800,338.749 16.641,338.630 16.448 C 338.510 16.254,337.965 16.010,337.418 15.906 C 336.871 15.801,336.519 15.870,336.636 16.058 M350.800 20.934 C 350.800 21.037,351.381 21.324,352.091 21.572 C 352.801 21.819,353.206 21.857,352.991 21.656 C 352.535 21.229,350.800 20.658,350.800 20.934 M356.400 22.934 C 356.400 23.037,356.981 23.324,357.691 23.572 C 358.401 23.819,358.806 23.857,358.591 23.656 C 358.135 23.229,356.400 22.658,356.400 22.934 M362.400 25.031 C 362.400 25.301,364.478 26.056,364.676 25.857 C 364.767 25.767,364.292 25.501,363.620 25.267 C 362.949 25.033,362.400 24.927,362.400 25.031 M367.941 27.301 C 368.143 27.503,368.733 27.601,369.254 27.519 C 370.055 27.393,369.998 27.337,368.887 27.152 C 368.093 27.021,367.719 27.079,367.941 27.301 M376.800 30.134 C 376.800 30.237,377.381 30.524,378.091 30.772 C 378.801 31.019,379.206 31.057,378.991 30.856 C 378.535 30.429,376.800 29.858,376.800 30.134 M382.400 32.134 C 382.400 32.237,382.981 32.524,383.691 32.772 C 384.401 33.019,384.806 33.057,384.591 32.856 C 384.135 32.429,382.400 31.858,382.400 32.134 M388.206 34.410 C 388.306 34.572,388.835 34.790,389.382 34.894 C 389.929 34.999,390.294 34.952,390.194 34.790 C 390.094 34.628,389.565 34.410,389.018 34.306 C 388.471 34.201,388.106 34.248,388.206 34.410 M397.200 37.334 C 397.200 37.437,397.781 37.724,398.491 37.972 C 399.201 38.219,399.606 38.257,399.391 38.056 C 398.935 37.629,397.200 37.058,397.200 37.334 M156.983 184.501 C 156.877 184.776,156.838 192.111,156.895 200.801 L 157.000 216.600 160.288 216.716 C 163.517 216.830,163.581 216.813,163.832 215.816 C 164.146 214.566,164.182 214.565,165.513 215.800 C 166.107 216.350,166.920 216.800,167.322 216.800 C 167.724 216.800,168.430 217.002,168.892 217.249 C 169.851 217.762,173.786 217.070,174.259 216.305 C 174.443 216.006,174.284 215.965,173.766 216.178 C 170.807 217.392,168.161 217.109,165.762 215.322 C 164.209 214.165,163.690 214.160,163.528 215.300 C 163.410 216.133,163.169 216.209,160.295 216.317 L 157.191 216.434 157.295 200.517 L 157.400 184.600 161.100 184.485 L 164.800 184.370 164.800 189.585 C 164.800 195.287,164.773 195.238,167.200 194.000 C 169.170 192.995,172.800 192.919,174.227 193.854 C 174.776 194.214,175.324 194.409,175.445 194.288 C 176.824 192.909,169.371 192.268,167.058 193.568 C 166.243 194.025,165.491 194.400,165.388 194.400 C 165.285 194.400,165.200 192.060,165.200 189.200 L 165.200 184.000 161.187 184.000 C 158.343 184.000,157.119 184.146,156.983 184.501 M299.880 184.253 C 299.726 184.407,299.597 186.798,299.594 189.567 C 299.591 192.335,299.456 194.420,299.294 194.199 C 297.262 191.430,290.121 192.597,287.418 196.140 C 286.329 197.568,284.800 200.940,284.800 201.913 C 284.800 203.017,285.451 201.915,285.996 199.889 C 287.404 194.655,293.838 191.550,298.200 194.000 C 298.983 194.440,299.709 194.800,299.812 194.800 C 299.915 194.800,300.000 192.460,300.000 189.600 L 300.000 184.400 303.800 184.400 L 307.600 184.400 307.600 200.400 L 307.600 216.400 304.400 216.400 C 301.513 216.400,301.200 216.325,301.200 215.633 C 301.200 214.567,300.383 214.389,299.200 215.198 C 293.632 219.003,285.600 215.312,285.600 208.948 C 285.600 208.233,285.392 207.518,285.137 207.361 C 284.157 206.755,285.183 210.812,286.551 212.950 C 289.423 217.440,295.973 218.906,299.283 215.799 L 300.197 214.942 300.610 215.771 C 300.980 216.512,301.384 216.600,304.412 216.600 L 307.800 216.600 307.800 200.400 L 307.800 184.200 303.980 184.086 C 301.879 184.024,300.034 184.099,299.880 184.253 M60.000 201.614 L 60.000 216.828 64.100 216.714 L 68.200 216.600 68.312 211.700 L 68.425 206.800 69.712 206.809 C 70.959 206.818,71.076 206.974,73.402 211.709 L 75.804 216.600 80.502 216.713 C 85.663 216.836,85.827 216.747,84.394 214.600 C 83.953 213.940,83.203 212.590,82.727 211.600 C 82.251 210.610,81.516 209.350,81.094 208.800 C 79.157 206.274,79.044 205.178,80.592 203.902 C 81.366 203.264,82.000 202.499,82.000 202.202 C 82.000 201.906,81.280 202.397,80.400 203.295 C 79.520 204.193,78.800 205.022,78.800 205.137 C 78.800 205.582,80.584 209.057,81.399 210.200 C 81.870 210.860,82.585 212.165,82.988 213.100 C 83.392 214.035,83.853 214.800,84.014 214.800 C 84.175 214.800,84.401 215.160,84.516 215.600 C 84.715 216.363,84.528 216.400,80.459 216.400 L 76.193 216.400 73.763 211.500 L 71.334 206.600 69.667 206.477 L 68.000 206.354 68.000 211.377 L 68.000 216.400 64.200 216.400 L 60.400 216.400 60.400 201.559 L 60.400 186.718 68.562 186.859 C 73.051 186.937,76.640 186.865,76.538 186.700 C 76.436 186.535,72.673 186.400,68.176 186.400 L 60.000 186.400 60.000 201.614 M77.364 187.542 C 77.520 187.794,77.969 188.000,78.362 188.000 C 79.258 188.000,81.926 190.553,82.438 191.901 C 82.650 192.457,82.912 192.821,83.022 192.711 C 83.827 191.907,80.195 187.850,78.240 187.369 C 77.414 187.165,77.162 187.215,77.364 187.542 M323.645 188.100 C 323.460 188.595,323.182 189.865,323.027 190.923 C 322.684 193.253,322.985 193.115,317.283 193.560 C 316.898 193.590,316.796 194.388,316.883 196.700 L 317.000 199.800 319.500 199.919 L 322.000 200.038 322.002 203.119 C 322.007 209.638,324.239 216.000,326.521 216.000 C 326.726 216.000,326.236 215.273,325.433 214.384 C 324.631 213.496,323.866 212.232,323.735 211.576 C 323.604 210.920,323.340 210.286,323.148 210.168 C 322.957 210.050,322.800 207.623,322.800 204.776 L 322.800 199.600 320.000 199.600 L 317.200 199.600 317.200 196.800 C 317.200 195.260,317.335 193.990,317.500 193.979 C 323.024 193.588,323.600 193.344,323.600 191.401 C 323.600 188.947,324.044 187.653,324.946 187.476 C 325.767 187.315,325.765 187.307,324.890 187.254 C 324.283 187.218,323.869 187.499,323.645 188.100 M328.577 187.562 C 328.700 187.762,329.152 187.833,329.582 187.721 C 330.297 187.534,330.373 187.764,330.482 190.458 L 330.600 193.400 335.100 193.513 L 339.600 193.626 339.600 196.613 L 339.600 199.600 334.967 199.600 L 330.333 199.600 330.467 204.390 C 330.641 210.641,330.810 210.848,335.843 210.937 L 339.390 211.000 339.993 213.500 C 340.325 214.875,340.714 216.000,340.856 216.000 C 341.068 216.000,340.558 213.463,339.743 210.465 C 339.635 210.065,339.171 210.003,337.899 210.222 C 332.000 211.236,331.052 210.451,330.865 204.403 L 330.730 200.027 335.265 199.913 L 339.800 199.800 339.916 196.500 L 340.032 193.200 335.416 193.200 L 330.800 193.200 330.800 190.200 L 330.800 187.200 329.576 187.200 C 328.903 187.200,328.454 187.363,328.577 187.562 M68.191 192.879 C 68.067 193.202,68.018 194.982,68.083 196.833 L 68.200 200.200 70.558 200.322 C 71.857 200.389,73.107 200.253,73.340 200.020 C 73.639 199.721,73.000 199.626,71.182 199.698 L 68.600 199.800 68.484 196.500 L 68.368 193.200 71.122 193.200 C 74.846 193.200,76.731 196.144,74.700 198.788 C 74.425 199.146,74.605 199.015,75.100 198.497 C 76.520 197.011,76.115 194.364,74.293 193.226 C 72.975 192.403,68.472 192.147,68.191 192.879 M102.800 192.653 C 93.878 194.083,89.201 202.734,93.073 210.643 C 93.654 211.829,94.281 212.800,94.465 212.800 C 94.649 212.800,94.807 213.025,94.815 213.300 C 94.833 213.874,97.754 216.000,98.525 216.000 C 98.808 216.000,99.211 216.160,99.420 216.355 C 100.795 217.637,109.855 217.606,110.652 216.316 C 110.801 216.075,110.600 216.009,110.150 216.150 C 103.194 218.340,93.200 214.603,93.200 209.812 C 93.200 209.501,93.020 209.136,92.800 209.000 C 91.954 208.477,92.342 201.942,93.346 199.785 C 94.413 197.494,97.600 194.460,99.296 194.121 C 99.912 193.998,100.514 193.740,100.632 193.548 C 100.990 192.969,106.533 193.157,108.459 193.814 C 112.876 195.319,116.185 201.685,114.948 206.300 C 114.709 207.191,114.633 207.200,107.577 207.200 C 99.859 207.200,99.459 207.317,100.792 209.189 C 102.176 211.132,105.522 211.694,109.525 210.655 C 111.606 210.116,111.631 210.120,112.332 211.155 C 114.051 213.695,114.110 214.345,112.695 215.207 C 111.919 215.680,111.663 215.998,112.056 215.999 C 112.416 215.999,113.115 215.674,113.607 215.274 L 114.503 214.549 113.675 212.774 C 112.212 209.641,112.065 209.549,109.569 210.213 C 105.515 211.292,102.201 210.726,101.037 208.754 L 100.355 207.600 107.753 207.600 L 115.151 207.600 115.425 205.774 C 116.568 198.153,110.143 191.475,102.800 192.653 M132.919 192.680 C 132.435 192.774,131.501 193.463,130.844 194.211 L 129.650 195.571 129.525 194.485 C 129.401 193.406,129.383 193.400,126.200 193.400 L 123.000 193.400 123.000 205.000 L 123.000 216.600 126.900 216.714 L 130.800 216.829 130.800 209.091 C 130.800 203.231,130.931 201.174,131.339 200.615 C 132.556 198.952,132.800 200.290,132.800 208.624 L 132.800 216.800 135.751 216.800 C 138.621 216.800,140.348 216.109,139.219 215.412 C 138.989 215.269,138.800 215.433,138.800 215.776 C 138.800 216.282,138.269 216.400,136.000 216.400 L 133.200 216.400 133.200 208.633 C 133.200 200.248,133.110 199.600,131.947 199.600 C 130.675 199.600,130.400 201.273,130.400 209.026 L 130.400 216.400 126.800 216.400 L 123.200 216.400 123.200 204.982 L 123.200 193.565 126.076 193.682 L 128.952 193.800 129.299 195.145 L 129.646 196.490 131.054 194.845 C 133.224 192.310,136.960 192.665,138.041 195.508 L 138.432 196.535 140.131 194.868 C 142.025 193.009,144.190 192.617,145.911 193.823 C 146.400 194.165,146.800 194.294,146.800 194.109 C 146.800 192.064,142.130 192.154,139.973 194.240 L 138.546 195.620 138.042 194.678 C 137.100 192.918,135.304 192.217,132.919 192.680 M204.455 193.079 C 202.925 193.541,201.769 194.269,200.421 195.617 L 198.531 197.507 198.165 195.454 L 197.800 193.400 194.512 193.284 C 190.424 193.140,190.744 192.032,190.888 205.800 L 191.000 216.600 195.100 216.714 L 199.200 216.828 199.200 210.788 L 199.200 204.748 201.374 202.574 L 203.548 200.400 207.098 200.400 L 210.649 200.400 211.111 198.500 C 211.998 194.859,212.086 193.769,211.531 193.313 C 210.556 192.512,206.746 192.386,204.455 193.079 M231.200 192.655 C 224.105 193.691,220.874 195.447,222.310 197.486 C 222.742 198.099,223.216 198.989,223.363 199.464 C 223.796 200.861,224.681 201.394,225.714 200.879 C 229.113 199.186,234.800 199.256,234.800 200.990 C 234.800 201.326,234.986 201.600,235.214 201.600 C 235.974 201.600,234.798 199.980,233.750 199.581 C 231.919 198.885,228.021 199.334,225.132 200.574 C 224.613 200.797,224.289 200.465,223.678 199.082 C 223.245 198.104,222.690 197.179,222.445 197.028 C 221.467 196.424,222.328 195.796,226.600 193.995 C 228.614 193.147,235.527 192.991,237.349 193.752 C 239.122 194.494,239.519 194.559,238.980 194.021 C 238.497 193.538,234.095 192.382,233.016 192.454 C 232.567 192.484,231.750 192.575,231.200 192.655 M267.000 192.691 C 266.340 192.785,265.629 193.028,265.420 193.231 C 265.211 193.434,264.708 193.600,264.303 193.600 C 263.897 193.600,263.080 194.050,262.487 194.600 C 261.116 195.871,260.968 195.856,260.460 194.400 L 260.042 193.200 256.615 193.200 L 253.188 193.200 253.294 204.900 L 253.400 216.600 257.600 216.600 L 261.800 216.600 261.908 208.942 L 262.017 201.283 263.369 200.642 C 267.209 198.820,267.560 199.486,267.691 208.830 L 267.800 216.600 272.000 216.600 L 276.200 216.600 276.309 208.429 C 276.421 199.965,276.121 197.807,274.484 195.288 C 273.492 193.760,273.568 194.521,274.614 196.587 C 275.574 198.485,275.600 198.767,275.600 207.468 L 275.600 216.400 272.031 216.400 L 268.462 216.400 268.331 208.841 C 268.214 202.078,268.120 201.194,267.438 200.441 C 266.259 199.140,263.655 199.281,262.275 200.722 L 261.200 201.844 261.200 209.122 L 261.200 216.400 257.594 216.400 L 253.988 216.400 254.094 205.100 L 254.200 193.800 256.913 193.681 L 259.625 193.563 260.223 194.994 L 260.821 196.425 262.268 195.321 C 264.976 193.256,270.045 192.442,271.824 193.787 C 272.813 194.536,273.440 194.571,272.837 193.844 C 272.411 193.332,269.265 192.322,268.523 192.460 C 268.345 192.493,267.660 192.597,267.000 192.691 M211.106 193.700 C 211.379 194.039,211.353 194.910,211.024 196.400 C 210.232 199.985,210.291 199.931,207.450 199.703 C 204.694 199.482,203.124 200.033,201.064 201.946 C 199.018 203.846,198.800 204.695,198.800 210.780 L 198.800 216.400 194.994 216.400 L 191.188 216.400 191.294 205.100 L 191.400 193.800 194.500 193.683 L 197.600 193.566 197.600 195.412 C 197.600 198.239,198.439 198.764,199.806 196.792 C 201.815 193.893,209.552 191.776,211.106 193.700 M83.200 196.000 C 83.200 197.530,83.350 198.355,83.600 198.200 C 83.820 198.064,84.000 197.074,84.000 196.000 C 84.000 194.926,83.820 193.936,83.600 193.800 C 83.350 193.645,83.200 194.470,83.200 196.000 M147.201 194.714 C 147.201 194.997,147.512 195.704,147.893 196.286 C 148.490 197.197,148.608 198.675,148.739 206.872 L 148.892 216.400 145.254 216.400 L 141.616 216.400 141.508 208.100 C 141.403 200.053,141.375 199.796,140.573 199.682 C 139.560 199.537,138.800 200.996,138.800 203.085 C 138.800 205.026,139.312 204.431,139.409 202.377 C 139.499 200.482,140.219 199.468,140.811 200.403 C 141.018 200.732,141.191 204.555,141.194 208.900 L 141.200 216.800 145.245 216.800 L 149.289 216.800 149.124 206.900 C 148.968 197.552,148.910 196.922,148.081 195.600 C 147.598 194.830,147.202 194.431,147.201 194.714 M240.622 195.700 C 242.180 197.420,242.800 198.578,242.800 199.771 C 242.800 200.311,243.005 200.879,243.255 201.034 C 244.665 201.906,242.859 197.318,241.086 195.526 C 239.546 193.969,239.177 194.107,240.622 195.700 M177.200 196.113 C 179.681 198.128,180.572 205.580,178.904 210.363 C 178.756 210.790,178.815 210.868,179.086 210.600 C 181.397 208.309,179.702 195.546,177.095 195.613 C 176.756 195.621,176.789 195.779,177.200 196.113 M101.231 200.031 C 99.119 202.143,99.454 202.410,104.100 202.323 L 108.200 202.245 104.200 202.023 L 100.200 201.800 101.469 200.500 C 102.484 199.461,103.060 199.200,104.340 199.200 C 105.671 199.200,106.116 199.420,106.967 200.500 C 107.620 201.329,107.993 201.572,107.996 201.170 C 108.013 198.710,103.339 197.923,101.231 200.031 M82.688 199.733 C 82.210 200.949,82.324 201.973,82.839 201.087 C 83.067 200.696,83.191 200.066,83.115 199.687 C 82.988 199.060,82.951 199.064,82.688 199.733 M166.400 199.884 L 165.000 200.600 164.884 205.000 C 164.751 210.036,165.157 210.800,167.969 210.800 C 170.946 210.800,172.542 207.276,171.659 202.658 C 171.061 199.533,169.106 198.501,166.400 199.884 M297.734 199.856 L 299.667 200.465 299.534 204.995 C 299.460 207.487,299.535 209.441,299.700 209.339 C 300.236 209.006,300.053 200.540,299.500 200.101 C 299.225 199.883,298.280 199.601,297.400 199.476 C 295.839 199.253,295.847 199.262,297.734 199.856 M169.760 200.054 C 173.430 201.727,171.386 210.832,167.485 210.187 C 165.109 209.793,165.200 209.994,165.200 205.157 L 165.200 200.761 166.500 200.196 C 168.105 199.499,168.502 199.481,169.760 200.054 M294.102 200.500 C 290.473 204.400,294.444 213.060,298.653 210.425 C 299.263 210.043,299.059 210.001,297.543 210.196 C 293.494 210.719,291.408 204.134,294.575 200.827 C 295.221 200.152,295.567 199.600,295.345 199.600 C 295.122 199.600,294.563 200.005,294.102 200.500 M230.000 202.016 C 225.118 203.144,223.661 203.849,222.171 205.802 C 219.999 208.651,221.103 216.000,223.704 216.000 C 223.949 216.000,223.690 215.505,223.129 214.900 C 218.178 209.563,223.111 202.400,231.738 202.400 C 232.736 202.400,233.664 202.220,233.800 202.000 C 234.090 201.531,232.061 201.539,230.000 202.016 M138.800 207.757 C 138.800 208.797,138.941 209.560,139.112 209.454 C 139.492 209.220,139.462 206.529,139.076 206.143 C 138.924 205.991,138.800 206.717,138.800 207.757 M231.400 206.683 C 228.954 207.052,227.677 209.222,229.131 210.538 C 230.973 212.205,235.800 210.367,235.800 208.000 C 235.800 206.493,234.746 206.178,231.400 206.683 M235.600 207.956 C 235.600 210.116,230.172 211.816,229.182 209.967 C 228.338 208.389,230.648 206.919,234.100 206.836 C 235.496 206.803,235.600 206.880,235.600 207.956 M138.800 212.357 C 138.800 213.727,138.936 214.763,139.103 214.660 C 139.479 214.428,139.456 210.523,139.077 210.143 C 138.925 209.991,138.800 210.987,138.800 212.357 M177.999 212.001 C 177.743 212.479,176.898 213.575,176.120 214.435 C 175.343 215.296,174.812 216.000,174.940 216.000 C 175.275 216.000,177.600 213.680,177.600 213.345 C 177.600 213.190,177.899 212.733,178.264 212.329 C 178.630 211.925,178.824 211.491,178.697 211.363 C 178.569 211.236,178.255 211.523,177.999 212.001 M235.800 214.401 C 235.647 214.647,235.065 215.023,234.506 215.236 C 233.947 215.448,233.598 215.732,233.732 215.865 C 233.866 215.999,234.436 215.807,234.999 215.438 C 236.159 214.677,236.800 214.886,236.800 216.024 C 236.800 216.739,237.074 216.794,240.300 216.719 L 243.800 216.637 240.500 216.502 C 238.269 216.411,237.196 216.211,237.187 215.884 C 237.165 215.036,236.106 213.905,235.800 214.401 M224.528 216.283 C 225.348 217.610,231.688 217.632,233.000 216.312 C 233.268 216.043,233.135 215.983,232.600 216.131 C 228.686 217.213,227.574 217.220,225.034 216.178 C 224.535 215.973,224.359 216.010,224.528 216.283 M327.336 216.296 C 328.168 217.642,338.313 217.683,339.780 216.346 C 340.309 215.865,339.884 215.900,336.407 216.625 C 333.509 217.230,330.112 217.032,327.738 216.121 C 327.313 215.958,327.166 216.022,327.336 216.296 M398.067 224.780 C 397.833 225.451,397.727 226.000,397.831 226.000 C 398.101 226.000,398.856 223.922,398.657 223.724 C 398.567 223.633,398.301 224.108,398.067 224.780 M393.200 236.919 C 393.200 237.057,392.827 238.122,392.371 239.285 C 391.916 240.448,391.709 241.220,391.911 241.000 C 392.470 240.393,393.664 237.130,393.417 236.883 C 393.298 236.764,393.200 236.780,393.200 236.919 M390.867 243.180 C 390.633 243.851,390.527 244.400,390.631 244.400 C 390.901 244.400,391.656 242.322,391.457 242.124 C 391.367 242.033,391.101 242.508,390.867 243.180 M381.667 266.380 C 381.433 267.051,381.327 267.600,381.431 267.600 C 381.701 267.600,382.456 265.522,382.257 265.324 C 382.167 265.233,381.901 265.708,381.667 266.380 M372.587 289.000 C 372.484 289.330,372.312 289.879,372.205 290.221 C 372.097 290.562,372.166 290.745,372.357 290.627 C 372.548 290.509,372.791 289.959,372.897 289.406 C 373.106 288.313,372.890 288.030,372.587 289.000 M369.179 297.855 C 368.958 298.436,368.852 298.985,368.943 299.076 C 369.033 299.167,369.299 298.692,369.533 298.020 C 370.053 296.528,369.739 296.382,369.179 297.855 M367.267 302.780 C 367.033 303.451,366.927 304.000,367.031 304.000 C 367.301 304.000,368.056 301.922,367.857 301.724 C 367.767 301.633,367.501 302.108,367.267 302.780 M14.600 335.556 C 14.820 335.777,15.720 336.257,16.600 336.621 C 18.690 337.487,18.113 336.901,15.905 335.915 C 14.967 335.496,14.380 335.335,14.600 335.556 M352.987 338.600 C 352.884 338.930,352.712 339.479,352.605 339.821 C 352.497 340.162,352.566 340.345,352.757 340.227 C 352.948 340.109,353.191 339.559,353.297 339.006 C 353.506 337.913,353.290 337.630,352.987 338.600 M22.800 339.334 C 22.800 339.437,23.381 339.724,24.091 339.972 C 24.801 340.219,25.206 340.257,24.991 340.056 C 24.535 339.629,22.800 339.058,22.800 339.334 M34.400 344.576 C 34.400 344.780,37.948 346.407,38.351 346.388 C 38.714 346.370,37.405 345.645,35.796 344.973 C 35.028 344.652,34.400 344.473,34.400 344.576 M43.406 348.810 C 43.506 348.972,44.035 349.190,44.582 349.294 C 45.129 349.399,45.494 349.352,45.394 349.190 C 45.294 349.028,44.765 348.810,44.218 348.706 C 43.671 348.601,43.306 348.648,43.406 348.810 M47.800 350.800 C 48.680 351.225,49.580 351.572,49.800 351.570 C 50.020 351.569,49.493 351.215,48.629 350.784 C 47.764 350.353,46.864 350.006,46.629 350.014 C 46.393 350.021,46.920 350.375,47.800 350.800 M345.579 357.455 C 345.358 358.036,345.252 358.585,345.343 358.676 C 345.433 358.767,345.699 358.292,345.933 357.620 C 346.453 356.128,346.139 355.982,345.579 357.455 M68.200 360.000 C 69.080 360.425,69.980 360.772,70.200 360.770 C 70.420 360.769,69.893 360.415,69.029 359.984 C 68.164 359.553,67.264 359.206,67.029 359.214 C 66.793 359.221,67.320 359.575,68.200 360.000 M343.667 362.380 C 343.433 363.051,343.327 363.600,343.431 363.600 C 343.701 363.600,344.456 361.522,344.257 361.324 C 344.167 361.233,343.901 361.708,343.667 362.380 M78.000 364.158 C 78.000 364.270,78.675 364.671,79.500 365.048 C 80.325 365.426,81.135 365.805,81.300 365.891 C 81.465 365.977,81.600 365.955,81.600 365.842 C 81.600 365.730,80.925 365.329,80.100 364.952 C 79.275 364.574,78.465 364.195,78.300 364.109 C 78.135 364.023,78.000 364.045,78.000 364.158 M118.400 382.534 C 118.400 382.637,118.981 382.924,119.691 383.172 C 120.401 383.419,120.806 383.457,120.591 383.256 C 120.135 382.829,118.400 382.258,118.400 382.534 M122.800 384.631 C 122.800 384.901,124.878 385.656,125.076 385.457 C 125.167 385.367,124.692 385.101,124.020 384.867 C 123.349 384.633,122.800 384.527,122.800 384.631 M130.095 387.820 C 130.258 387.987,131.158 388.467,132.095 388.885 C 133.033 389.304,133.620 389.465,133.400 389.244 C 133.180 389.023,132.280 388.543,131.400 388.179 C 130.520 387.814,129.933 387.653,130.095 387.820 M331.267 393.980 C 331.033 394.651,330.927 395.200,331.031 395.200 C 331.301 395.200,332.056 393.122,331.857 392.924 C 331.767 392.833,331.501 393.308,331.267 393.980 M143.400 394.000 C 144.280 394.425,145.180 394.772,145.400 394.770 C 145.620 394.769,145.093 394.415,144.229 393.984 C 143.364 393.553,142.464 393.206,142.229 393.214 C 141.993 393.221,142.520 393.575,143.400 394.000 " stroke="none" fill="#dd4b39" fill-rule="evenodd"></path><path id="path4" d="M253.287 0.195 C 253.672 0.614,263.729 4.005,263.945 3.789 C 264.038 3.695,263.864 3.540,263.557 3.444 C 262.901 3.238,258.007 1.545,256.000 0.830 C 253.813 0.051,252.975 -0.145,253.287 0.195 M293.806 1.210 C 293.906 1.372,294.435 1.590,294.982 1.694 C 295.529 1.799,295.894 1.752,295.794 1.590 C 295.694 1.428,295.165 1.210,294.618 1.106 C 294.071 1.001,293.706 1.048,293.806 1.210 M264.600 4.273 C 265.170 4.790,269.560 6.173,269.817 5.917 C 269.935 5.799,269.169 5.428,268.116 5.093 C 264.780 4.032,264.180 3.892,264.600 4.273 M302.446 4.180 C 302.581 4.314,303.289 4.596,304.019 4.805 C 304.749 5.015,305.178 5.032,304.973 4.845 C 304.548 4.456,302.071 3.804,302.446 4.180 M270.574 6.357 C 270.724 6.601,271.100 6.800,271.410 6.800 C 271.910 6.800,273.879 7.549,275.613 8.398 C 275.950 8.563,276.850 8.812,277.613 8.950 C 279.195 9.237,278.825 9.043,274.800 7.473 C 271.205 6.070,270.238 5.815,270.574 6.357 M314.000 8.231 C 314.000 8.501,316.078 9.256,316.276 9.057 C 316.367 8.967,315.892 8.701,315.220 8.467 C 314.549 8.233,314.000 8.127,314.000 8.231 M279.400 9.600 C 279.536 9.820,280.052 10.000,280.547 10.000 C 281.042 10.000,281.796 10.264,282.224 10.587 C 282.977 11.157,284.801 11.467,284.268 10.935 C 283.502 10.168,278.986 8.930,279.400 9.600 M319.600 10.333 C 319.930 10.536,320.650 10.824,321.200 10.971 C 321.895 11.157,322.017 11.125,321.600 10.867 C 321.270 10.664,320.550 10.376,320.000 10.229 C 319.305 10.043,319.183 10.075,319.600 10.333 M285.000 11.480 C 285.220 11.699,287.249 12.470,289.510 13.193 C 291.770 13.916,293.716 14.663,293.833 14.854 C 293.951 15.044,294.442 15.200,294.924 15.200 C 296.174 15.199,293.406 13.928,289.400 12.663 C 287.640 12.107,285.840 11.524,285.400 11.367 C 284.869 11.178,284.734 11.216,285.000 11.480 M323.000 11.600 C 323.136 11.820,323.642 11.987,324.124 11.972 C 324.969 11.945,324.971 11.931,324.200 11.600 C 323.099 11.127,322.708 11.127,323.000 11.600 M328.800 13.533 C 329.130 13.736,329.850 14.024,330.400 14.171 C 331.095 14.357,331.217 14.325,330.800 14.067 C 330.470 13.864,329.750 13.576,329.200 13.429 C 328.505 13.243,328.383 13.275,328.800 13.533 M296.200 15.530 C 296.420 15.742,297.230 16.033,298.000 16.175 C 298.911 16.344,299.190 16.308,298.800 16.071 C 297.888 15.519,295.721 15.068,296.200 15.530 M334.400 15.431 C 334.400 15.701,336.478 16.456,336.676 16.257 C 336.767 16.167,336.292 15.901,335.620 15.667 C 334.949 15.433,334.400 15.327,334.400 15.431 M299.790 16.784 C 299.932 17.013,300.369 17.200,300.762 17.200 C 301.155 17.200,302.056 17.489,302.763 17.842 C 303.471 18.195,304.148 18.385,304.268 18.265 C 304.511 18.023,302.421 17.085,300.666 16.649 C 299.921 16.464,299.621 16.510,299.790 16.784 M339.600 17.334 C 339.600 17.437,340.181 17.724,340.891 17.972 C 341.601 18.219,342.006 18.257,341.791 18.056 C 341.335 17.629,339.600 17.058,339.600 17.334 M304.800 18.546 C 304.800 18.795,310.053 20.481,310.241 20.292 C 310.339 20.194,309.277 19.729,307.881 19.257 C 305.338 18.398,304.800 18.274,304.800 18.546 M310.974 20.757 C 311.124 21.001,311.642 21.206,312.124 21.213 C 312.606 21.220,313.349 21.490,313.776 21.813 C 314.204 22.136,314.924 22.386,315.376 22.368 C 315.950 22.346,316.018 22.271,315.600 22.120 C 315.270 22.000,314.460 21.669,313.800 21.383 C 311.785 20.511,310.668 20.263,310.974 20.757 M348.932 20.665 C 349.290 21.023,353.307 22.426,353.479 22.254 C 353.612 22.121,349.359 20.400,348.898 20.400 C 348.771 20.400,348.786 20.519,348.932 20.665 M316.600 22.730 C 316.820 22.942,317.630 23.233,318.400 23.375 C 319.311 23.544,319.590 23.508,319.200 23.271 C 318.288 22.719,316.121 22.268,316.600 22.730 M354.544 22.678 C 354.908 23.042,358.914 24.419,359.092 24.242 C 359.174 24.160,358.647 23.876,357.920 23.611 C 355.732 22.812,354.276 22.410,354.544 22.678 M320.141 23.874 C 320.416 24.149,322.699 25.053,324.200 25.481 C 325.868 25.956,324.161 24.893,322.229 24.253 C 320.040 23.528,319.740 23.473,320.141 23.874 M360.000 24.534 C 360.000 24.637,360.581 24.924,361.291 25.172 C 362.001 25.419,362.406 25.457,362.191 25.256 C 361.735 24.829,360.000 24.258,360.000 24.534 M325.400 25.880 C 325.907 26.350,330.409 27.724,330.651 27.483 C 330.750 27.383,329.969 27.028,328.916 26.693 C 325.553 25.623,324.979 25.490,325.400 25.880 M363.600 25.831 C 363.600 26.101,365.678 26.856,365.876 26.657 C 365.967 26.567,365.492 26.301,364.820 26.067 C 364.149 25.833,363.600 25.727,363.600 25.831 M331.361 27.936 C 331.486 28.139,331.996 28.404,332.494 28.525 C 332.992 28.647,335.740 29.579,338.600 30.597 C 341.460 31.616,344.160 32.540,344.600 32.652 C 346.859 33.226,343.669 31.885,339.180 30.373 C 336.441 29.450,334.020 28.564,333.800 28.403 C 333.141 27.921,331.111 27.532,331.361 27.936 M374.800 29.831 C 374.800 30.101,376.878 30.856,377.076 30.657 C 377.167 30.567,376.692 30.301,376.020 30.067 C 375.349 29.833,374.800 29.727,374.800 29.831 M345.800 33.073 C 346.370 33.590,350.760 34.973,351.017 34.717 C 351.135 34.599,350.369 34.228,349.316 33.893 C 345.980 32.832,345.380 32.692,345.800 33.073 M384.000 33.133 C 384.330 33.336,385.050 33.624,385.600 33.771 C 386.295 33.957,386.417 33.925,386.000 33.667 C 385.670 33.464,384.950 33.176,384.400 33.029 C 383.705 32.843,383.583 32.875,384.000 33.133 M351.790 35.184 C 351.932 35.413,352.300 35.600,352.610 35.600 C 353.110 35.600,355.079 36.349,356.813 37.198 C 357.632 37.599,360.000 38.110,360.000 37.886 C 360.000 37.788,358.785 37.302,357.300 36.805 C 355.815 36.309,354.420 35.770,354.200 35.607 C 353.487 35.079,351.511 34.732,351.790 35.184 M390.602 35.570 C 392.665 36.490,394.283 36.987,393.901 36.584 C 393.601 36.268,389.619 34.775,389.215 34.828 C 389.097 34.844,389.721 35.178,390.602 35.570 M395.200 37.031 C 395.200 37.301,397.278 38.056,397.476 37.857 C 397.567 37.767,397.092 37.501,396.420 37.267 C 395.749 37.033,395.200 36.927,395.200 37.031 M360.564 38.342 C 360.720 38.594,361.247 38.800,361.735 38.800 C 362.223 38.800,363.027 39.083,363.521 39.430 C 364.016 39.776,364.641 39.982,364.910 39.887 C 365.407 39.712,363.060 38.581,361.264 38.130 C 360.581 37.959,360.367 38.023,360.564 38.342 M398.400 38.400 C 398.730 38.613,399.270 38.788,399.600 38.788 C 400.133 38.788,400.133 38.745,399.600 38.400 C 399.270 38.187,398.730 38.012,398.400 38.012 C 397.867 38.012,397.867 38.055,398.400 38.400 M365.600 40.155 C 365.600 40.240,367.445 40.904,369.700 41.631 C 371.955 42.358,374.155 43.188,374.589 43.476 C 375.023 43.764,375.743 43.993,376.189 43.984 C 377.291 43.963,375.268 43.078,370.200 41.364 C 366.233 40.023,365.600 39.856,365.600 40.155 M377.400 44.330 C 377.620 44.542,378.430 44.833,379.200 44.975 C 380.111 45.144,380.390 45.108,380.000 44.871 C 379.088 44.319,376.921 43.868,377.400 44.330 M380.990 45.584 C 381.132 45.813,381.642 46.006,382.124 46.013 C 382.606 46.020,383.349 46.290,383.776 46.613 C 384.204 46.936,384.834 47.192,385.176 47.182 C 385.961 47.160,383.388 45.806,381.866 45.440 C 381.123 45.262,380.821 45.311,380.990 45.584 M386.200 47.600 C 386.336 47.820,386.775 48.000,387.175 48.000 C 387.575 48.000,388.571 48.279,389.388 48.621 C 390.206 48.962,391.069 49.177,391.306 49.098 C 391.543 49.019,390.569 48.560,389.140 48.077 C 386.219 47.090,385.848 47.030,386.200 47.600 M392.200 49.543 C 392.420 49.763,393.140 50.069,393.800 50.223 C 394.600 50.410,394.867 50.370,394.600 50.103 C 394.380 49.883,393.660 49.577,393.000 49.423 C 392.200 49.237,391.933 49.277,392.200 49.543 M395.328 50.684 C 395.471 50.915,395.996 51.199,396.494 51.314 C 396.992 51.429,397.985 51.708,398.700 51.934 C 399.415 52.159,400.000 52.214,400.000 52.055 C 400.000 51.896,399.235 51.561,398.300 51.310 C 397.365 51.059,396.255 50.721,395.834 50.559 C 395.339 50.368,395.161 50.412,395.328 50.684 M399.376 185.843 C 399.242 186.259,398.849 187.277,398.503 188.104 C 398.158 188.931,397.967 189.700,398.079 189.812 C 398.191 189.924,398.673 188.996,399.150 187.750 C 399.627 186.504,399.928 185.394,399.818 185.285 C 399.708 185.175,399.509 185.426,399.376 185.843 M397.367 191.043 C 397.228 191.459,396.864 192.367,396.557 193.060 C 396.251 193.754,396.012 194.564,396.027 194.860 C 396.042 195.157,396.246 194.950,396.481 194.400 C 396.716 193.850,397.170 192.800,397.489 192.068 C 397.807 191.335,397.967 190.634,397.844 190.510 C 397.720 190.387,397.505 190.626,397.367 191.043 M395.071 196.892 C 394.082 199.258,393.871 200.127,394.357 199.826 C 394.601 199.676,394.800 199.321,394.800 199.038 C 394.800 198.755,395.089 197.944,395.442 197.237 C 395.795 196.529,395.985 195.852,395.865 195.732 C 395.745 195.612,395.388 196.134,395.071 196.892 M393.367 201.100 C 393.253 201.485,392.898 202.310,392.580 202.932 C 392.261 203.555,392.000 204.376,392.000 204.756 C 392.000 205.136,391.736 205.796,391.413 206.224 C 391.090 206.651,390.820 207.261,390.813 207.580 C 390.791 208.553,391.445 207.537,392.216 205.400 C 392.613 204.300,393.062 203.220,393.214 203.000 C 393.605 202.433,394.059 200.400,393.795 200.400 C 393.674 200.400,393.481 200.715,393.367 201.100 M389.804 210.239 C 389.470 211.097,388.927 212.310,388.598 212.932 C 388.269 213.555,388.001 214.275,388.001 214.532 C 388.002 215.054,386.252 219.576,385.369 221.332 C 385.056 221.955,384.794 222.765,384.787 223.132 C 384.780 223.500,384.510 224.149,384.187 224.576 C 383.864 225.004,383.609 225.634,383.620 225.976 C 383.651 226.957,385.394 223.078,387.381 217.600 C 387.980 215.950,388.704 214.060,388.991 213.400 C 390.571 209.758,390.815 209.082,390.622 208.889 C 390.506 208.773,390.137 209.380,389.804 210.239 M398.467 222.780 C 398.233 223.451,398.127 224.000,398.231 224.000 C 398.501 224.000,399.256 221.922,399.057 221.724 C 398.967 221.633,398.701 222.108,398.467 222.780 M397.267 225.980 C 397.033 226.651,396.927 227.200,397.031 227.200 C 397.301 227.200,398.056 225.122,397.857 224.924 C 397.767 224.833,397.501 225.308,397.267 225.980 M382.390 229.086 C 381.887 230.359,381.323 231.571,381.138 231.780 C 380.952 231.989,380.800 232.412,380.800 232.720 C 380.800 233.027,380.554 233.846,380.254 234.540 C 378.674 238.191,378.292 239.225,378.462 239.396 C 378.565 239.499,379.232 238.102,379.944 236.291 C 380.656 234.481,381.482 232.460,381.780 231.800 C 382.761 229.624,383.636 227.103,383.469 226.936 C 383.379 226.845,382.893 227.813,382.390 229.086 M394.379 233.055 C 394.158 233.636,394.052 234.185,394.143 234.276 C 394.233 234.367,394.499 233.892,394.733 233.220 C 395.253 231.728,394.939 231.582,394.379 233.055 M377.767 240.643 C 377.628 241.059,377.264 241.967,376.957 242.660 C 376.651 243.354,376.412 244.164,376.427 244.460 C 376.442 244.757,376.646 244.550,376.881 244.000 C 377.116 243.450,377.570 242.400,377.889 241.668 C 378.207 240.935,378.367 240.234,378.244 240.110 C 378.120 239.987,377.905 240.226,377.767 240.643 M390.086 244.261 C 389.839 245.065,389.796 245.560,389.990 245.361 C 390.382 244.961,390.989 242.800,390.710 242.800 C 390.614 242.800,390.332 243.458,390.086 244.261 M375.453 246.535 C 374.638 248.485,374.255 249.844,374.616 249.501 C 374.985 249.151,376.418 245.200,376.176 245.200 C 376.085 245.200,375.760 245.801,375.453 246.535 M387.853 249.735 C 387.125 251.478,386.644 253.053,386.917 252.800 C 387.249 252.493,388.814 248.400,388.600 248.400 C 388.496 248.400,388.160 249.001,387.853 249.735 M373.754 250.700 C 373.447 251.669,372.407 254.335,371.711 255.932 C 371.393 256.665,371.226 257.360,371.342 257.476 C 371.551 257.684,372.430 255.825,373.001 253.965 C 373.164 253.434,373.431 252.820,373.594 252.600 C 373.994 252.059,374.470 250.000,374.195 250.000 C 374.074 250.000,373.875 250.315,373.754 250.700 M386.067 254.380 C 385.833 255.051,385.727 255.600,385.831 255.600 C 386.101 255.600,386.856 253.522,386.657 253.324 C 386.567 253.233,386.301 253.708,386.067 254.380 M370.289 259.668 C 369.970 260.400,369.434 261.720,369.099 262.600 C 368.764 263.480,368.172 264.967,367.783 265.904 C 367.393 266.841,367.159 267.692,367.262 267.796 C 367.365 267.899,368.034 266.502,368.748 264.691 C 369.462 262.881,370.314 260.793,370.640 260.050 C 370.967 259.308,371.152 258.619,371.051 258.518 C 370.951 258.417,370.607 258.935,370.289 259.668 M383.009 261.743 C 382.894 262.104,382.716 262.670,382.613 263.000 C 382.509 263.330,382.514 263.600,382.622 263.600 C 382.928 263.600,383.648 261.515,383.421 261.287 C 383.310 261.176,383.125 261.381,383.009 261.743 M380.987 267.000 C 380.884 267.330,380.712 267.879,380.605 268.221 C 380.497 268.562,380.566 268.745,380.757 268.627 C 380.948 268.509,381.191 267.959,381.297 267.406 C 381.506 266.313,381.290 266.030,380.987 267.000 M366.212 269.833 C 365.863 270.669,365.465 271.814,365.329 272.377 C 365.192 272.939,364.837 273.755,364.540 274.189 C 364.243 274.623,364.000 275.244,364.000 275.569 C 364.000 276.548,364.642 275.551,365.396 273.400 C 365.782 272.300,366.361 270.800,366.683 270.068 C 367.005 269.335,367.174 268.640,367.058 268.524 C 366.942 268.408,366.561 268.997,366.212 269.833 M378.945 272.300 C 378.818 272.685,378.464 273.567,378.157 274.260 C 377.351 276.083,377.502 276.459,378.355 274.753 C 379.131 273.202,379.636 271.600,379.350 271.600 C 379.254 271.600,379.071 271.915,378.945 272.300 M363.238 277.455 C 362.384 279.291,362.019 280.800,362.428 280.800 C 362.633 280.800,362.800 280.521,362.800 280.180 C 362.800 279.839,363.081 279.017,363.424 278.353 C 363.768 277.689,363.986 276.958,363.909 276.728 C 363.832 276.497,363.530 276.825,363.238 277.455 M361.492 281.442 C 361.331 281.602,361.200 282.143,361.200 282.643 C 361.200 283.143,361.027 283.660,360.815 283.791 C 360.603 283.922,360.254 284.607,360.039 285.314 C 359.825 286.022,358.999 288.194,358.205 290.142 C 357.411 292.090,356.834 293.890,356.924 294.142 C 357.014 294.394,357.277 293.970,357.508 293.200 C 357.740 292.430,358.854 289.575,359.983 286.855 C 361.825 282.419,362.332 280.602,361.492 281.442 M355.853 296.135 C 354.974 298.239,354.655 299.457,355.102 299.000 C 355.531 298.562,356.856 294.800,356.581 294.800 C 356.487 294.800,356.160 295.401,355.853 296.135 M369.579 295.855 C 369.358 296.436,369.268 297.002,369.379 297.113 C 369.560 297.294,369.757 296.872,370.226 295.300 C 370.510 294.348,369.979 294.804,369.579 295.855 M354.158 300.300 C 354.039 300.685,353.685 301.591,353.371 302.314 C 353.057 303.036,352.807 303.846,352.816 304.114 C 352.837 304.745,354.216 301.986,354.555 300.637 C 354.844 299.486,354.500 299.194,354.158 300.300 M367.667 300.780 C 367.433 301.451,367.327 302.000,367.431 302.000 C 367.701 302.000,368.456 299.922,368.257 299.724 C 368.167 299.633,367.901 300.108,367.667 300.780 M366.467 303.980 C 366.233 304.651,366.127 305.200,366.231 305.200 C 366.501 305.200,367.256 303.122,367.057 302.924 C 366.967 302.833,366.701 303.308,366.467 303.980 M351.812 306.233 C 351.463 307.069,351.072 308.171,350.944 308.680 C 350.816 309.190,350.551 309.706,350.356 309.827 C 350.160 309.948,350.000 310.324,350.000 310.663 C 350.000 311.002,349.754 311.846,349.454 312.540 C 347.874 316.191,347.492 317.225,347.662 317.396 C 347.765 317.499,348.440 316.102,349.162 314.291 C 349.884 312.481,351.011 309.677,351.665 308.061 C 352.320 306.445,352.764 305.030,352.651 304.918 C 352.539 304.805,352.161 305.397,351.812 306.233 M364.379 309.055 C 364.158 309.636,364.052 310.185,364.143 310.276 C 364.233 310.367,364.499 309.892,364.733 309.220 C 365.253 307.728,364.939 307.582,364.379 309.055 M362.467 313.980 C 362.233 314.651,362.127 315.200,362.231 315.200 C 362.501 315.200,363.256 313.122,363.057 312.924 C 362.967 312.833,362.701 313.308,362.467 313.980 M1.800 315.809 C 2.900 316.350,3.980 316.786,4.200 316.778 C 4.821 316.756,1.077 314.837,0.400 314.831 C 0.070 314.828,0.700 315.268,1.800 315.809 M7.644 318.330 C 13.282 321.053,15.665 322.068,15.889 321.845 C 16.011 321.722,15.681 321.457,15.155 321.256 C 13.804 320.738,8.885 318.492,7.088 317.573 C 6.256 317.148,5.356 316.813,5.088 316.830 C 4.819 316.846,5.970 317.521,7.644 318.330 M346.967 318.643 C 346.828 319.059,346.464 319.967,346.157 320.660 C 345.851 321.354,345.612 322.164,345.627 322.460 C 345.642 322.757,345.846 322.550,346.081 322.000 C 346.316 321.450,346.770 320.400,347.089 319.668 C 347.407 318.935,347.567 318.234,347.444 318.110 C 347.320 317.987,347.105 318.226,346.967 318.643 M360.379 319.055 C 360.158 319.636,360.052 320.185,360.143 320.276 C 360.233 320.367,360.499 319.892,360.733 319.220 C 361.253 317.728,360.939 317.582,360.379 319.055 M358.853 323.253 C 358.363 324.376,358.028 325.361,358.108 325.442 C 358.189 325.522,358.656 324.670,359.147 323.547 C 359.637 322.424,359.972 321.439,359.892 321.358 C 359.811 321.278,359.344 322.130,358.853 323.253 M16.606 322.410 C 16.872 322.840,18.400 323.180,18.400 322.809 C 18.400 322.635,17.955 322.408,17.412 322.304 C 16.869 322.201,16.506 322.248,16.606 322.410 M21.600 324.665 C 23.250 325.443,25.140 326.314,25.800 326.601 C 27.342 327.271,30.910 328.885,31.300 329.090 C 31.465 329.176,31.600 329.057,31.600 328.824 C 31.600 328.591,31.378 328.400,31.106 328.400 C 30.834 328.400,29.709 327.968,28.606 327.440 C 27.503 326.912,25.880 326.166,25.000 325.783 C 24.120 325.400,22.511 324.662,21.425 324.143 C 20.339 323.624,19.259 323.211,19.025 323.225 C 18.791 323.239,19.950 323.887,21.600 324.665 M344.312 325.283 C 343.934 326.424,343.704 327.438,343.803 327.536 C 343.901 327.634,344.092 327.374,344.227 326.957 C 344.362 326.541,344.620 325.840,344.800 325.400 C 345.423 323.877,345.574 323.200,345.287 323.204 C 345.129 323.206,344.690 324.142,344.312 325.283 M342.954 328.700 C 342.532 330.032,341.497 332.605,340.867 333.884 C 340.520 334.591,340.338 335.271,340.463 335.396 C 340.588 335.522,341.085 334.674,341.567 333.512 C 342.049 332.350,342.602 331.040,342.796 330.600 C 343.360 329.324,343.675 328.000,343.414 328.000 C 343.283 328.000,343.075 328.315,342.954 328.700 M34.600 330.557 C 36.140 331.294,38.030 332.171,38.800 332.505 C 41.484 333.670,45.023 335.279,48.352 336.848 C 50.196 337.718,51.784 338.350,51.880 338.253 C 52.046 338.087,49.318 336.715,45.100 334.843 C 40.145 332.644,39.183 332.207,36.108 330.755 C 34.298 329.900,32.588 329.204,32.308 329.209 C 32.029 329.213,33.060 329.820,34.600 330.557 M6.000 331.431 C 6.000 331.701,8.078 332.456,8.276 332.257 C 8.367 332.167,7.892 331.901,7.220 331.667 C 6.549 331.433,6.000 331.327,6.000 331.431 M10.400 333.405 C 10.400 333.523,10.805 333.780,11.300 333.975 C 11.795 334.170,12.875 334.618,13.700 334.971 C 14.525 335.323,15.200 335.514,15.200 335.395 C 15.200 335.277,14.795 335.020,14.300 334.825 C 13.805 334.630,12.725 334.182,11.900 333.829 C 11.075 333.477,10.400 333.286,10.400 333.405 M339.373 337.850 C 339.009 338.703,338.481 339.940,338.200 340.600 C 337.225 342.891,336.316 345.650,336.482 345.816 C 336.574 345.908,337.234 344.502,337.948 342.691 C 338.662 340.881,339.514 338.793,339.840 338.050 C 340.167 337.308,340.344 336.611,340.234 336.501 C 340.124 336.391,339.737 336.998,339.373 337.850 M54.200 339.398 C 58.891 341.668,63.328 343.605,63.484 343.449 C 63.576 343.357,62.875 342.925,61.926 342.488 C 60.977 342.051,58.643 340.953,56.739 340.047 C 54.836 339.141,53.036 338.407,52.739 338.415 C 52.443 338.423,53.100 338.865,54.200 339.398 M352.187 339.800 C 352.084 340.130,351.912 340.679,351.805 341.021 C 351.697 341.362,351.766 341.545,351.957 341.427 C 352.148 341.309,352.391 340.759,352.497 340.206 C 352.706 339.113,352.490 338.830,352.187 339.800 M26.400 340.631 C 26.400 340.901,28.478 341.656,28.676 341.457 C 28.767 341.367,28.292 341.101,27.620 340.867 C 26.949 340.633,26.400 340.527,26.400 340.631 M33.200 343.734 C 33.200 343.837,33.781 344.124,34.491 344.372 C 35.201 344.619,35.606 344.657,35.391 344.456 C 34.935 344.029,33.200 343.458,33.200 343.734 M64.200 344.000 C 64.336 344.220,64.761 344.400,65.144 344.400 C 65.527 344.400,66.011 344.557,66.220 344.748 C 66.916 345.386,79.600 350.976,79.600 350.645 C 79.600 350.473,74.591 348.000,74.243 348.000 C 74.100 348.000,72.503 347.306,70.692 346.457 C 64.168 343.400,63.726 343.232,64.200 344.000 M349.979 345.455 C 349.758 346.036,349.668 346.602,349.779 346.713 C 349.960 346.894,350.157 346.472,350.626 344.900 C 350.910 343.948,350.379 344.404,349.979 345.455 M335.600 347.400 C 335.368 348.011,335.268 348.601,335.378 348.711 C 335.488 348.821,335.768 348.411,336.000 347.800 C 336.232 347.189,336.332 346.599,336.222 346.489 C 336.112 346.379,335.832 346.789,335.600 347.400 M334.692 349.442 C 334.531 349.602,334.394 350.108,334.387 350.567 C 334.380 351.025,334.110 351.749,333.787 352.176 C 333.464 352.604,333.211 353.234,333.224 353.576 C 333.237 353.919,333.698 353.242,334.248 352.072 C 335.165 350.120,335.399 348.735,334.692 349.442 M348.067 350.380 C 347.833 351.051,347.727 351.600,347.831 351.600 C 348.101 351.600,348.856 349.522,348.657 349.324 C 348.567 349.233,348.301 349.708,348.067 350.380 M81.739 351.846 C 82.806 352.401,83.758 352.775,83.856 352.677 C 84.089 352.444,80.921 350.794,80.288 350.819 C 80.019 350.829,80.673 351.291,81.739 351.846 M346.776 353.680 C 345.856 356.028,345.655 356.813,346.034 356.579 C 346.235 356.455,346.400 356.121,346.400 355.838 C 346.400 355.555,346.689 354.744,347.042 354.037 C 347.395 353.329,347.596 352.662,347.488 352.555 C 347.380 352.447,347.060 352.953,346.776 353.680 M53.600 352.934 C 53.600 353.037,54.181 353.324,54.891 353.572 C 55.601 353.819,56.006 353.857,55.791 353.656 C 55.335 353.229,53.600 352.658,53.600 352.934 M84.600 353.200 C 84.736 353.420,85.044 353.600,85.285 353.600 C 85.526 353.600,86.885 354.149,88.307 354.821 C 89.728 355.493,90.970 355.963,91.066 355.867 C 91.163 355.770,90.467 355.335,89.521 354.899 C 84.614 352.638,84.155 352.480,84.600 353.200 M332.021 356.439 C 331.539 357.560,331.236 358.570,331.349 358.682 C 331.545 358.878,332.404 357.078,332.979 355.265 C 333.485 353.671,332.908 354.379,332.021 356.439 M61.006 356.410 C 61.106 356.572,61.635 356.790,62.182 356.894 C 62.729 356.999,63.094 356.952,62.994 356.790 C 62.894 356.628,62.365 356.410,61.818 356.306 C 61.271 356.201,60.906 356.248,61.006 356.410 M91.600 356.245 C 91.600 356.319,92.455 356.765,93.500 357.236 C 94.545 357.706,96.317 358.521,97.439 359.046 C 98.560 359.571,99.640 359.991,99.839 359.981 C 100.465 359.947,95.035 357.240,94.300 357.219 C 93.915 357.209,93.600 357.041,93.600 356.847 C 93.600 356.652,93.150 356.407,92.600 356.302 C 92.050 356.197,91.600 356.171,91.600 356.245 M63.600 357.390 C 63.600 357.618,67.019 359.204,67.478 359.190 C 67.795 359.180,64.109 357.200,63.773 357.200 C 63.678 357.200,63.600 357.286,63.600 357.390 M344.653 358.935 C 343.925 360.678,343.444 362.253,343.717 362.000 C 344.049 361.693,345.614 357.600,345.400 357.600 C 345.296 357.600,344.960 358.201,344.653 358.935 M330.667 359.467 C 330.520 359.613,330.400 359.991,330.400 360.306 C 330.400 360.621,330.154 361.446,329.854 362.140 C 328.254 365.837,327.894 366.827,328.082 367.016 C 328.196 367.130,328.838 365.823,329.508 364.111 C 331.263 359.630,331.516 358.618,330.667 359.467 M102.801 361.344 C 106.204 363.038,106.800 363.253,106.800 362.787 C 106.800 362.574,106.610 362.400,106.378 362.400 C 106.145 362.400,104.867 361.860,103.537 361.200 C 102.206 360.540,100.911 360.011,100.659 360.025 C 100.407 360.038,101.370 360.632,102.801 361.344 M72.570 361.552 C 72.690 361.745,73.195 362.006,73.694 362.132 C 74.568 362.352,74.573 362.340,73.824 361.780 C 72.964 361.138,72.232 361.004,72.570 361.552 M76.970 363.552 C 77.090 363.745,77.595 364.006,78.094 364.132 C 78.968 364.352,78.973 364.340,78.224 363.780 C 77.364 363.138,76.632 363.004,76.970 363.552 M109.800 364.557 C 111.340 365.294,113.230 366.171,114.000 366.505 C 114.770 366.839,116.480 367.600,117.800 368.195 C 119.120 368.791,120.740 369.513,121.400 369.800 C 122.963 370.480,126.515 372.088,126.900 372.290 C 127.065 372.376,127.200 372.257,127.200 372.024 C 127.200 371.791,126.978 371.600,126.706 371.600 C 126.434 371.600,125.309 371.168,124.206 370.640 C 123.103 370.112,121.480 369.366,120.600 368.983 C 119.720 368.600,118.111 367.862,117.025 367.343 C 115.939 366.824,114.814 366.400,114.525 366.400 C 114.236 366.400,114.000 366.220,114.000 366.000 C 114.000 365.780,113.748 365.600,113.441 365.600 C 113.134 365.600,111.794 365.060,110.463 364.400 C 109.133 363.740,107.810 363.204,107.522 363.209 C 107.235 363.213,108.260 363.820,109.800 364.557 M85.600 367.431 C 85.600 367.701,87.678 368.456,87.876 368.257 C 87.967 368.167,87.492 367.901,86.820 367.667 C 86.149 367.433,85.600 367.327,85.600 367.431 M327.074 368.771 C 326.739 369.443,326.360 370.579,326.232 371.296 C 325.976 372.725,325.965 372.743,327.458 369.250 C 328.191 367.534,327.884 367.149,327.074 368.771 M340.779 368.655 C 340.558 369.236,340.452 369.785,340.543 369.876 C 340.633 369.967,340.899 369.492,341.133 368.820 C 341.653 367.328,341.339 367.182,340.779 368.655 M339.746 371.473 C 339.598 372.064,339.235 373.009,338.941 373.573 C 338.646 374.138,338.411 374.780,338.418 375.000 C 338.437 375.566,339.842 372.684,340.155 371.437 C 340.298 370.866,340.325 370.400,340.215 370.400 C 340.105 370.400,339.894 370.883,339.746 371.473 M130.054 373.754 C 132.529 374.993,134.400 375.699,134.400 375.394 C 134.400 375.155,128.379 372.400,127.885 372.413 C 127.618 372.420,128.594 373.024,130.054 373.754 M325.053 374.135 C 324.082 376.458,323.874 377.325,324.357 377.026 C 324.601 376.876,324.800 376.414,324.800 376.000 C 324.800 375.586,324.959 375.149,325.152 375.030 C 325.492 374.820,326.033 372.800,325.750 372.800 C 325.673 372.800,325.360 373.401,325.053 374.135 M101.600 374.631 C 101.600 374.901,103.678 375.656,103.876 375.457 C 103.967 375.367,103.492 375.101,102.820 374.867 C 102.149 374.633,101.600 374.527,101.600 374.631 M136.539 376.646 C 137.606 377.201,138.568 377.565,138.678 377.456 C 138.909 377.225,135.660 375.591,135.025 375.619 C 134.791 375.629,135.473 376.091,136.539 376.646 M337.453 377.335 C 336.725 379.078,336.244 380.653,336.517 380.400 C 336.849 380.093,338.414 376.000,338.200 376.000 C 338.096 376.000,337.760 376.601,337.453 377.335 M106.000 376.605 C 106.000 376.723,106.405 376.980,106.900 377.175 C 107.395 377.370,108.475 377.818,109.300 378.171 C 110.125 378.523,110.800 378.714,110.800 378.595 C 110.800 378.477,110.395 378.220,109.900 378.025 C 109.405 377.830,108.325 377.382,107.500 377.029 C 106.675 376.677,106.000 376.486,106.000 376.605 M139.400 378.000 C 139.536 378.220,139.870 378.400,140.143 378.400 C 140.415 378.400,142.132 379.132,143.959 380.027 C 145.785 380.922,147.361 381.572,147.462 381.472 C 147.626 381.307,145.220 380.083,141.140 378.254 C 139.453 377.499,139.054 377.440,139.400 378.000 M323.354 378.300 C 323.047 379.269,322.007 381.935,321.311 383.532 C 320.993 384.265,320.812 384.946,320.911 385.045 C 321.010 385.143,321.485 384.274,321.967 383.112 C 322.449 381.950,323.002 380.640,323.196 380.200 C 323.760 378.924,324.075 377.600,323.814 377.600 C 323.683 377.600,323.475 377.915,323.354 378.300 M335.667 381.980 C 335.433 382.651,335.327 383.200,335.431 383.200 C 335.701 383.200,336.456 381.122,336.257 380.924 C 336.167 380.833,335.901 381.308,335.667 381.980 M150.600 382.954 C 152.140 383.702,154.255 384.693,155.300 385.157 C 158.114 386.406,160.690 387.568,163.546 388.876 C 164.946 389.517,166.170 389.963,166.266 389.867 C 166.435 389.698,165.274 389.113,161.000 387.216 C 157.824 385.807,155.606 384.796,152.600 383.390 C 151.060 382.669,149.350 381.971,148.800 381.837 C 148.250 381.704,149.060 382.207,150.600 382.954 M122.000 383.831 C 122.000 384.101,124.078 384.856,124.276 384.657 C 124.367 384.567,123.892 384.301,123.220 384.067 C 122.549 383.833,122.000 383.727,122.000 383.831 M127.704 386.434 C 128.817 387.082,131.200 388.030,131.200 387.824 C 131.200 387.620,127.652 385.993,127.249 386.012 C 127.112 386.019,127.317 386.209,127.704 386.434 M319.842 387.237 C 319.489 387.944,319.200 388.693,319.200 388.901 C 319.200 389.296,318.374 391.309,317.326 393.466 C 316.987 394.162,316.780 394.940,316.865 395.195 C 316.950 395.449,317.610 394.160,318.333 392.329 C 319.055 390.498,319.914 388.393,320.240 387.650 C 321.010 385.901,320.680 385.557,319.842 387.237 M332.573 389.443 C 332.438 389.859,332.180 390.560,332.000 391.000 C 331.334 392.627,331.213 393.239,331.605 392.997 C 331.822 392.863,332.000 392.521,332.000 392.238 C 332.000 391.955,332.289 391.144,332.642 390.437 C 332.995 389.729,333.179 389.046,333.051 388.918 C 332.923 388.790,332.708 389.026,332.573 389.443 M166.800 390.188 C 166.800 390.403,170.436 392.105,173.400 393.276 C 176.573 394.531,175.172 393.642,170.977 391.739 C 167.043 389.955,166.800 389.865,166.800 390.188 M177.339 395.046 C 178.406 395.601,179.358 395.975,179.456 395.877 C 179.689 395.644,176.521 393.994,175.888 394.019 C 175.619 394.029,176.273 394.491,177.339 395.046 M330.379 395.055 C 330.158 395.636,330.052 396.185,330.143 396.276 C 330.233 396.367,330.499 395.892,330.733 395.220 C 331.253 393.728,330.939 393.582,330.379 395.055 M149.200 396.134 C 149.200 396.237,149.781 396.524,150.491 396.772 C 151.201 397.019,151.606 397.057,151.391 396.856 C 150.935 396.429,149.200 395.858,149.200 396.134 M180.220 396.335 C 180.429 396.519,181.500 397.045,182.600 397.504 C 183.700 397.962,185.974 398.982,187.654 399.769 C 190.890 401.285,191.396 401.441,191.000 400.800 C 190.864 400.580,190.403 400.400,189.976 400.400 C 189.549 400.400,189.200 400.220,189.200 400.000 C 189.200 399.780,188.933 399.600,188.606 399.600 C 188.279 399.600,186.974 399.079,185.706 398.443 C 181.478 396.322,179.220 395.454,180.220 396.335 M316.167 396.643 C 316.028 397.059,315.664 397.967,315.357 398.660 C 315.051 399.354,314.814 400.254,314.832 400.660 C 314.851 401.122,315.015 400.949,315.267 400.200 C 315.490 399.540,315.941 398.400,316.270 397.668 C 316.599 396.935,316.767 396.234,316.644 396.110 C 316.520 395.987,316.305 396.226,316.167 396.643 " stroke="none" fill="#94ccf4" fill-rule="evenodd"></path></g></svg>